<?xml version="1.0" encoding="UTF-8"?>
<svg version="1.1" xmlns="http://www.w3.org/2000/svg" width="2806" height="2806">
<path d="M0 0 C2.20115174 -0.00701994 4.40230327 -0.01410678 6.60345459 -0.02125549 C13.59892061 -0.04066073 20.59435353 -0.04568934 27.58984375 -0.046875 C28.78069454 -0.04731686 29.97154533 -0.04775871 31.19848251 -0.04821396 C65.06106801 -0.05480708 98.81170992 -0.00093564 132.57067871 2.94665527 C135.72380607 3.22016671 138.87785651 3.48048955 142.03222656 3.73925781 C242.99723392 12.09924887 342.57104029 30.97492813 652.52734375 145.203125 C653.18150269 145.52472595 653.83566162 145.8463269 654.50964355 146.17767334 C671.13090348 154.3525299 687.65067857 162.65473961 703.82275391 171.69482422 C706.69050436 173.29411672 709.5673964 174.87611217 712.4453125 176.45703125 C726.17146988 184.03068396 739.6125411 192.0046483 752.97265625 200.19921875 C756.82282705 202.56019336 760.68194451 204.89822553 764.58203125 207.17578125 C779.05913762 215.64155389 792.91991658 225.01250069 806.82777405 234.37223816 C811.33165309 237.40316729 815.84949626 240.41197948 820.37817383 243.40576172 C842.66281323 258.15417807 864.02387542 274.19176773 885.22705078 290.44189453 C887.20823551 291.95879823 889.19281449 293.47103079 891.1796875 294.98046875 C899.15603591 301.06379009 906.94578439 307.36051614 914.70703125 313.71484375 C916.2999624 315.01721879 917.89763895 316.31378532 919.49609375 317.609375 C925.19290855 322.23384819 930.78169486 326.97104956 936.33642578 331.76416016 C939.85009086 334.78946905 943.4088199 337.74048456 947.02734375 340.640625 C952.70047891 345.24114376 957.99354514 350.2120355 963.31640625 355.20703125 C965.7009386 357.44227233 968.11496435 359.6301278 970.58984375 361.765625 C975.10972453 365.67264059 979.48384533 369.73595924 983.85961914 373.80249023 C986.10692915 375.88940823 988.36106364 377.96822882 990.62475586 380.03735352 C1001.99293466 390.47967525 1012.88119101 401.40330526 1023.78222656 412.32763672 C1026.50280325 415.05396038 1029.22791725 417.77569795 1031.95433807 420.49617577 C1034.08558023 422.62378419 1036.21441049 424.75379316 1038.34254456 426.88451004 C1039.3463897 427.88901406 1040.35095527 428.89279874 1041.35630798 429.89579391 C1046.44234003 434.97249017 1051.41792574 440.08250829 1056.09777832 445.53775024 C1057.82965471 447.55530268 1059.63256539 449.49537664 1061.46484375 451.421875 C1062.13257812 452.12699219 1062.8003125 452.83210938 1063.48828125 453.55859375 C1064.16117188 454.26628906 1064.8340625 454.97398437 1065.52734375 455.703125 C1070.65679453 461.0978922 1075.67098891 466.56071152 1080.52734375 472.203125 C1081.00977539 472.76338379 1081.49220703 473.32364258 1081.98925781 473.90087891 C1083.37953899 475.52026827 1084.76644663 477.14248272 1086.15234375 478.765625 C1089.31982894 482.47139204 1092.4931849 486.1712402 1095.69921875 489.84375 C1103.22463963 498.46562033 1110.56484798 507.22190462 1117.79980469 516.08886719 C1119.48773093 518.15464464 1121.18258874 520.21454831 1122.87890625 522.2734375 C1129.22428465 529.99759039 1135.34353189 537.85226599 1141.30078125 545.87890625 C1144.29752347 549.91182611 1147.34844328 553.90173629 1150.4050293 557.8894043 C1158.30152615 568.19687376 1166.02073457 578.60852004 1173.52734375 589.203125 C1174.39117676 590.41766357 1174.39117676 590.41766357 1175.27246094 591.65673828 C1204.78201522 633.24562172 1231.77248536 676.6316973 1256.52734375 721.203125 C1257.02153809 722.09241699 1257.51573242 722.98170898 1258.02490234 723.89794922 C1266.49109991 739.17724749 1274.58240643 754.64739524 1282.52734375 770.203125 C1282.84507751 770.82421143 1283.16281128 771.44529785 1283.49017334 772.08520508 C1307.05222576 818.16328621 1327.54581016 865.6794016 1345.52734375 914.203125 C1345.99173859 915.45612396 1345.99173859 915.45612396 1346.46551514 916.73443604 C1379.3200742 1005.57916164 1403.21673914 1097.66479081 1430.73046875 1315.60546875 C1430.79690079 1316.55202835 1430.86333282 1317.49858795 1430.93177795 1318.47383118 C1432.16510644 1336.87239435 1432.69395908 1355.23872514 1432.73046875 1373.67578125 C1432.73748869 1375.87693299 1432.74457553 1378.07808452 1432.75172424 1380.27923584 C1432.77112948 1387.27470186 1432.77615809 1394.27013478 1432.77734375 1401.265625 C1432.77778561 1402.45647579 1432.77822746 1403.64732658 1432.77868271 1404.87426376 C1432.78527583 1438.73684926 1432.73140439 1472.48749117 1429.78381348 1506.24645996 C1429.51030204 1509.39958732 1429.2499792 1512.55363776 1428.99121094 1515.70800781 C1420.63121988 1616.67301517 1401.75554062 1716.24682154 1287.52734375 2026.203125 C1287.2057428 2026.85728394 1286.88414185 2027.51144287 1286.55279541 2028.1854248 C1278.37793885 2044.80668473 1270.07572914 2061.32645982 1261.03564453 2077.49853516 C1259.43635203 2080.36628561 1257.85435658 2083.24317765 1256.2734375 2086.12109375 C1248.69978479 2099.84725113 1240.72582045 2113.28832235 1232.53125 2126.6484375 C1230.17027539 2130.4986083 1227.83224322 2134.35772576 1225.5546875 2138.2578125 C1217.08891486 2152.73491887 1207.71796806 2166.59569783 1198.35823059 2180.5035553 C1195.32730146 2185.00743434 1192.31848927 2189.52527751 1189.32470703 2194.05395508 C1174.57629068 2216.33859448 1158.53870102 2237.69965667 1142.28857422 2258.90283203 C1140.77167052 2260.88401676 1139.25943796 2262.86859574 1137.75 2264.85546875 C1131.66667866 2272.83181716 1125.36995261 2280.62156564 1119.015625 2288.3828125 C1117.71324996 2289.97574365 1116.41668343 2291.5734202 1115.12109375 2293.171875 C1110.49662056 2298.8686898 1105.75941919 2304.45747611 1100.96630859 2310.01220703 C1097.9409997 2313.52587211 1094.98998419 2317.08460115 1092.08984375 2320.703125 C1087.48932499 2326.37626016 1082.51843325 2331.66932639 1077.5234375 2336.9921875 C1075.28819642 2339.37671985 1073.10034095 2341.7907456 1070.96484375 2344.265625 C1067.05782816 2348.78550578 1062.99450951 2353.15962658 1058.92797852 2357.53540039 C1056.84106052 2359.7827104 1054.76223993 2362.03684489 1052.69311523 2364.30053711 C1042.2507935 2375.66871591 1031.32716349 2386.55697226 1020.40283203 2397.45800781 C1017.67650837 2400.1785845 1014.9547708 2402.9036985 1012.23429298 2405.63011932 C1010.10668456 2407.76136148 1007.97667559 2409.89019174 1005.84595871 2412.01832581 C1004.84145469 2413.02217095 1003.83767001 2414.02673652 1002.83467484 2415.03208923 C997.75797858 2420.11812128 992.64796046 2425.09370699 987.19271851 2429.77355957 C985.17516607 2431.50543596 983.23509211 2433.30834664 981.30859375 2435.140625 C980.60347656 2435.80835937 979.89835937 2436.47609375 979.171875 2437.1640625 C978.46417969 2437.83695313 977.75648438 2438.50984375 977.02734375 2439.203125 C971.63257655 2444.33257578 966.16975723 2449.34677016 960.52734375 2454.203125 C959.96708496 2454.68555664 959.40682617 2455.16798828 958.82958984 2455.66503906 C957.21020048 2457.05532024 955.58798603 2458.44222788 953.96484375 2459.828125 C950.25907671 2462.99561019 946.55922855 2466.16896615 942.88671875 2469.375 C934.26484842 2476.90042088 925.50856413 2484.24062923 916.64160156 2491.47558594 C914.57582411 2493.16351218 912.51592044 2494.85836999 910.45703125 2496.5546875 C902.73287836 2502.9000659 894.87820276 2509.01931314 886.8515625 2514.9765625 C882.81864264 2517.97330472 878.82873246 2521.02422453 874.84106445 2524.08081055 C864.53359499 2531.9773074 854.12194871 2539.69651582 843.52734375 2547.203125 C842.31280518 2548.06695801 842.31280518 2548.06695801 841.07373047 2548.94824219 C799.48484703 2578.45779647 756.09877145 2605.44826661 711.52734375 2630.203125 C710.63805176 2630.69731934 709.74875977 2631.19151367 708.83251953 2631.70068359 C693.55322126 2640.16688116 678.08307351 2648.25818768 662.52734375 2656.203125 C661.90625732 2656.52085876 661.2851709 2656.83859253 660.64526367 2657.16595459 C614.56718254 2680.72800701 567.05106715 2701.22159141 518.52734375 2719.203125 C517.27434479 2719.66751984 517.27434479 2719.66751984 515.99603271 2720.14129639 C427.15130711 2752.99585545 335.06567794 2776.89252039 117.125 2804.40625 C116.1784404 2804.47268204 115.2318808 2804.53911407 114.25663757 2804.6075592 C95.8580744 2805.84088769 77.49174361 2806.36974033 59.0546875 2806.40625 C56.85353576 2806.41326994 54.65238423 2806.42035678 52.45123291 2806.42750549 C45.45576689 2806.44691073 38.46033397 2806.45193934 31.46484375 2806.453125 C30.27399296 2806.45356686 29.08314217 2806.45400871 27.85620499 2806.45446396 C-6.00638051 2806.46105708 -39.75702242 2806.40718564 -73.51599121 2803.45959473 C-76.66911857 2803.18608329 -79.82316901 2802.92576045 -82.97753906 2802.66699219 C-183.94254642 2794.30700113 -283.51635279 2775.43132187 -593.47265625 2661.203125 C-594.12681519 2660.88152405 -594.78097412 2660.5599231 -595.45495605 2660.22857666 C-612.07621598 2652.0537201 -628.59599107 2643.75151039 -644.76806641 2634.71142578 C-647.63581686 2633.11213328 -650.5127089 2631.53013783 -653.390625 2629.94921875 C-667.11678238 2622.37556604 -680.5578536 2614.4016017 -693.91796875 2606.20703125 C-697.76813955 2603.84605664 -701.62725701 2601.50802447 -705.52734375 2599.23046875 C-720.00445012 2590.76469611 -733.86522908 2581.39374931 -747.77308655 2572.03401184 C-752.27696559 2569.00308271 -756.79480876 2565.99427052 -761.32348633 2563.00048828 C-783.60812573 2548.25207193 -804.96918792 2532.21448227 -826.17236328 2515.96435547 C-828.15354801 2514.44745177 -830.13812699 2512.93521921 -832.125 2511.42578125 C-840.10134841 2505.34245991 -847.89109689 2499.04573386 -855.65234375 2492.69140625 C-857.2452749 2491.38903121 -858.84295145 2490.09246468 -860.44140625 2488.796875 C-866.13822105 2484.17240181 -871.72700736 2479.43520044 -877.28173828 2474.64208984 C-880.79540336 2471.61678095 -884.3541324 2468.66576544 -887.97265625 2465.765625 C-893.64579141 2461.16510624 -898.93885764 2456.1942145 -904.26171875 2451.19921875 C-906.6462511 2448.96397767 -909.06027685 2446.7761222 -911.53515625 2444.640625 C-916.05503703 2440.73360941 -920.42915783 2436.67029076 -924.80493164 2432.60375977 C-927.05224165 2430.51684177 -929.30637614 2428.43802118 -931.57006836 2426.36889648 C-942.93824716 2415.92657475 -953.82650351 2405.00294474 -964.72753906 2394.07861328 C-967.44811575 2391.35228962 -970.17322975 2388.63055205 -972.89965057 2385.91007423 C-975.03089273 2383.78246581 -977.15972299 2381.65245684 -979.28785706 2379.52173996 C-980.2917022 2378.51723594 -981.29626777 2377.51345126 -982.30162048 2376.51045609 C-987.38765253 2371.43375983 -992.36323824 2366.32374171 -997.04309082 2360.86849976 C-998.77496721 2358.85094732 -1000.57787789 2356.91087336 -1002.41015625 2354.984375 C-1003.41175781 2353.92669922 -1003.41175781 2353.92669922 -1004.43359375 2352.84765625 C-1005.10648438 2352.13996094 -1005.779375 2351.43226563 -1006.47265625 2350.703125 C-1011.60210703 2345.3083578 -1016.61630141 2339.84553848 -1021.47265625 2334.203125 C-1022.19630371 2333.36273682 -1022.19630371 2333.36273682 -1022.93457031 2332.50537109 C-1024.32485149 2330.88598173 -1025.71175913 2329.26376728 -1027.09765625 2327.640625 C-1030.26514144 2323.93485796 -1033.4384974 2320.2350098 -1036.64453125 2316.5625 C-1044.16995213 2307.94062967 -1051.51016048 2299.18434538 -1058.74511719 2290.31738281 C-1060.43304343 2288.25160536 -1062.12790124 2286.19170169 -1063.82421875 2284.1328125 C-1070.16959715 2276.40865961 -1076.28884439 2268.55398401 -1082.24609375 2260.52734375 C-1085.24283597 2256.49442389 -1088.29375578 2252.50451371 -1091.3503418 2248.5168457 C-1099.24683865 2238.20937624 -1106.96604707 2227.79772996 -1114.47265625 2217.203125 C-1115.04854492 2216.39343262 -1115.62443359 2215.58374023 -1116.21777344 2214.74951172 C-1145.72732772 2173.16062828 -1172.71779786 2129.7745527 -1197.47265625 2085.203125 C-1197.96685059 2084.31383301 -1198.46104492 2083.42454102 -1198.97021484 2082.50830078 C-1207.43641241 2067.22900251 -1215.52771893 2051.75885476 -1223.47265625 2036.203125 C-1223.79039001 2035.58203857 -1224.10812378 2034.96095215 -1224.43548584 2034.32104492 C-1247.99753826 1988.24296379 -1268.49112266 1940.7268484 -1286.47265625 1892.203125 C-1286.78225281 1891.36779236 -1287.09184937 1890.53245972 -1287.41082764 1889.67181396 C-1320.2653867 1800.82708836 -1344.16205164 1708.74145919 -1371.67578125 1490.80078125 C-1371.74221329 1489.85422165 -1371.80864532 1488.90766205 -1371.87709045 1487.93241882 C-1373.11041894 1469.53385565 -1373.63927158 1451.16752486 -1373.67578125 1432.73046875 C-1373.68280119 1430.52931701 -1373.68988803 1428.32816548 -1373.69703674 1426.12701416 C-1373.71644198 1419.13154814 -1373.72147059 1412.13611522 -1373.72265625 1405.140625 C-1373.72309811 1403.94977421 -1373.72353996 1402.75892342 -1373.72399521 1401.53198624 C-1373.73058833 1367.66940074 -1373.67671689 1333.91875883 -1370.72912598 1300.15979004 C-1370.45561454 1297.00666268 -1370.1952917 1293.85261224 -1369.93652344 1290.69824219 C-1361.57653238 1189.73323483 -1342.70085312 1090.15942846 -1228.47265625 780.203125 C-1228.1510553 779.54896606 -1227.82945435 778.89480713 -1227.49810791 778.2208252 C-1219.32325135 761.59956527 -1211.02104164 745.07979018 -1201.98095703 728.90771484 C-1200.38166453 726.03996439 -1198.79966908 723.16307235 -1197.21875 720.28515625 C-1189.64509729 706.55899887 -1181.67113295 693.11792765 -1173.4765625 679.7578125 C-1171.11558789 675.9076417 -1168.77755572 672.04852424 -1166.5 668.1484375 C-1158.03422736 653.67133113 -1148.66328056 639.81055217 -1139.30354309 625.9026947 C-1136.27261396 621.39881566 -1133.26380177 616.88097249 -1130.27001953 612.35229492 C-1115.52160318 590.06765552 -1099.48401352 568.70659333 -1083.23388672 547.50341797 C-1081.71698302 545.52223324 -1080.20475046 543.53765426 -1078.6953125 541.55078125 C-1072.61199116 533.57443284 -1066.31526511 525.78468436 -1059.9609375 518.0234375 C-1058.65856246 516.43050635 -1057.36199593 514.8328298 -1056.06640625 513.234375 C-1051.44193306 507.5375602 -1046.70473169 501.94877389 -1041.91162109 496.39404297 C-1038.8863122 492.88037789 -1035.93529669 489.32164885 -1033.03515625 485.703125 C-1028.43463749 480.02998984 -1023.46374575 474.73692361 -1018.46875 469.4140625 C-1016.23350892 467.02953015 -1014.04565345 464.6155044 -1011.91015625 462.140625 C-1008.00314066 457.62074422 -1003.93982201 453.24662342 -999.87329102 448.87084961 C-997.78637302 446.6235396 -995.70755243 444.36940511 -993.63842773 442.10571289 C-983.196106 430.73753409 -972.27247599 419.84927774 -961.34814453 408.94824219 C-958.62182087 406.2276655 -955.9000833 403.5025515 -953.17960548 400.77613068 C-951.05199706 398.64488852 -948.92198809 396.51605826 -946.79127121 394.38792419 C-945.78676719 393.38407905 -944.78298251 392.37951348 -943.77998734 391.37416077 C-938.70329108 386.28812872 -933.59327296 381.31254301 -928.13803101 376.63269043 C-926.12047857 374.90081404 -924.18040461 373.09790336 -922.25390625 371.265625 C-921.54878906 370.59789062 -920.84367187 369.93015625 -920.1171875 369.2421875 C-919.40949219 368.56929688 -918.70179688 367.89640625 -917.97265625 367.203125 C-912.57788905 362.07367422 -907.11506973 357.05947984 -901.47265625 352.203125 C-900.91239746 351.72069336 -900.35213867 351.23826172 -899.77490234 350.74121094 C-898.15551298 349.35092976 -896.53329853 347.96402212 -894.91015625 346.578125 C-891.20438921 343.41063981 -887.50454105 340.23728385 -883.83203125 337.03125 C-875.21016092 329.50582912 -866.45387663 322.16562077 -857.58691406 314.93066406 C-855.52113661 313.24273782 -853.46123294 311.54788001 -851.40234375 309.8515625 C-843.67819086 303.5061841 -835.82351526 297.38693686 -827.796875 291.4296875 C-823.76395514 288.43294528 -819.77404496 285.38202547 -815.78637695 282.32543945 C-805.47890749 274.4289426 -795.06726121 266.70973418 -784.47265625 259.203125 C-783.66296387 258.62723633 -782.85327148 258.05134766 -782.01904297 257.45800781 C-740.43015953 227.94845353 -697.04408395 200.95798339 -652.47265625 176.203125 C-651.13871826 175.4618335 -651.13871826 175.4618335 -649.77783203 174.70556641 C-634.49853376 166.23936884 -619.02838601 158.14806232 -603.47265625 150.203125 C-602.85156982 149.88539124 -602.2304834 149.56765747 -601.59057617 149.24029541 C-555.51249504 125.67824299 -507.99637965 105.18465859 -459.47265625 87.203125 C-458.21965729 86.73873016 -458.21965729 86.73873016 -456.94134521 86.26495361 C-368.09661961 53.41039455 -276.01099044 29.51372961 -58.0703125 2 C-57.1237529 1.93356796 -56.1771933 1.86713593 -55.20195007 1.7986908 C-36.8033869 0.56536231 -18.43705611 0.03650967 0 0 Z " fill="#FEFEFE" transform="translate(1373.47265625,-0.203125)"/>
<path d="M0 0 C227.34108527 0 227.34108527 0 262 6 C263.24652344 6.21398438 264.49304687 6.42796875 265.77734375 6.6484375 C280.37865518 9.59995111 292.05588628 16.51731074 304 25 C305.00289062 25.69480469 306.00578125 26.38960937 307.0390625 27.10546875 C312.58578809 31.01942582 317.67982962 35.24468479 322.6640625 39.8515625 C324.75396057 41.77370956 326.89090208 43.60923772 329.0625 45.4375 C355.52885305 68.72152603 371.02140396 105.50679453 373.82275391 140.17431641 C374.81198695 155.94481676 374.81208274 171.61284319 371 187 C370.83371094 187.70850098 370.66742187 188.41700195 370.49609375 189.14697266 C361.61341919 226.47887991 338.63217657 262.19324522 306 283 C299.74632089 286.80423965 293.38839396 290.4276642 287 294 C287.44434353 299.98897805 290.1274609 304.20924816 293.125 309.25 C293.65561035 310.16040039 294.1862207 311.07080078 294.73291016 312.00878906 C295.88153821 313.97928889 297.03386017 315.94763913 298.18945312 317.9140625 C301.27756546 323.17751179 304.32494901 328.46443406 307.375 333.75 C308.3194397 335.38376587 308.3194397 335.38376587 309.28295898 337.05053711 C314.24406328 345.64729842 319.10885007 354.29530277 323.9453125 362.96264648 C329.02215342 372.05698186 334.17910402 381.10352238 339.36035156 390.13867188 C342.15601458 395.01734528 344.94425888 399.90025767 347.73330688 404.78271484 C349.43789913 407.76671063 351.14273496 410.75056721 352.84765625 413.734375 C353.18957504 414.33278198 353.53149384 414.93118896 353.8837738 415.54772949 C356.29481757 419.76699409 358.70763853 423.98523941 361.12109375 428.203125 C364.44376064 434.01007973 367.76115014 439.82002424 371.07617188 445.63134766 C372.99998813 448.99997922 374.92962529 452.36523362 376.859375 455.73046875 C378.05236594 457.82015119 379.24508782 459.90998726 380.4375 462 C380.98752686 462.95559814 381.53755371 463.91119629 382.10424805 464.89575195 C382.60480713 465.77577881 383.10536621 466.65580566 383.62109375 467.5625 C384.27742798 468.70912109 384.27742798 468.70912109 384.94702148 469.87890625 C386 472 386 472 387 476 C347.73 476 308.46 476 268 476 C254.36883803 448.73767606 254.36883803 448.73767606 249.5625 438.1875 C245.29734802 428.91363443 240.95117459 419.68602543 236.5 410.5 C232.21079634 401.64029149 228.0012938 392.74923658 223.875 383.8125 C217.23676764 369.43672994 210.43912388 355.13808165 203.63061523 340.84233093 C202.49623387 338.45890502 201.36400782 336.07446384 200.23193359 333.68994141 C198.71416752 330.49434117 197.1840887 327.30498659 195.64697266 324.11865234 C194.90647874 322.5726375 194.16607769 321.02657817 193.42578125 319.48046875 C193.07960251 318.76917313 192.73342377 318.0578775 192.37675476 317.32502747 C190.96658391 314.36696058 190 312.32015167 190 309 C161.29 309 132.58 309 103 309 C103 364.44 103 419.88 103 477 C69.01 477 35.02 477 0 477 C0 319.59 0 162.18 0 0 Z " fill="#000000" transform="translate(1532,1150)"/>
<path d="M0 0 C40.92 0 81.84 0 124 0 C133.18255723 22.95639308 133.18255723 22.95639308 135.98046875 30.66796875 C136.31144058 31.57192383 136.64241241 32.47587891 136.9834137 33.40722656 C137.68869591 35.33451337 138.39265783 37.26228382 139.09533691 39.19052124 C140.62898286 43.39896263 142.16942663 47.60490816 143.709198 51.81111145 C144.53061284 54.05527674 145.35167377 56.2995716 146.1723938 58.54399109 C151.00839188 71.76703987 155.87966673 84.97706844 160.75 98.1875 C162.082847 101.8037145 163.41559114 105.41996689 164.74832153 109.03622437 C165.61048501 111.37561473 166.47268741 113.71499075 167.33493042 116.05435181 C169.96846169 123.1996774 172.60021184 130.34565601 175.23046875 137.4921875 C176.17458059 140.05686185 177.11872107 142.62152565 178.06286621 145.18618774 C178.63098613 146.72972557 179.19894768 148.2733217 179.76672363 149.81698608 C182.18897577 156.40247247 184.61391405 162.98638204 187.09025574 169.55177307 C191.10765019 180.2071658 194.97666951 190.91581628 198.85552979 201.62225342 C206.20489255 221.90075623 213.61987154 242.15354763 221.125 262.375 C221.5391214 263.49092529 221.9532428 264.60685059 222.37991333 265.7565918 C222.79409515 266.87267822 223.20827698 267.98876465 223.63500977 269.13867188 C224.46633599 271.37889608 225.29763495 273.61913041 226.12890625 275.859375 C226.53677872 276.95854248 226.94465118 278.05770996 227.36488342 279.19018555 C231.61924154 290.6604406 235.84555131 302.14094581 240.0625 313.625 C240.42744568 314.61881683 240.79239136 315.61263367 241.168396 316.63656616 C247.4533484 333.75617639 253.71048606 350.8859299 259.96554565 368.01647949 C265.00201645 381.80882182 270.04825176 395.59742921 275.125 409.375 C275.39576355 410.11041016 275.6665271 410.84582031 275.94549561 411.60351562 C279.09239557 420.14996694 282.25478346 428.69047973 285.4359436 437.22424316 C287.02789286 441.49627277 288.61630388 445.7696144 290.20452881 450.04302979 C290.98024957 452.1270032 291.75777563 454.21030558 292.53717041 456.29290771 C293.62027378 459.18716328 294.69745267 462.08356069 295.7734375 464.98046875 C296.10079895 465.8504097 296.4281604 466.72035065 296.76544189 467.61665344 C297.06118103 468.41629013 297.35692017 469.21592682 297.66162109 470.03979492 C298.05128555 471.08365608 298.05128555 471.08365608 298.44882202 472.14860535 C299 474 299 474 299 477 C265.34 477 231.68 477 197 477 C191.72 462.48 186.44 447.96 181 433 C176.93968534 421.94937893 176.93968534 421.94937893 172.859375 410.90625 C171.83464377 408.14110224 170.81174276 405.37528191 169.7890625 402.609375 C169.10686912 400.76558863 168.42458154 398.92183711 167.7421875 397.078125 C167.45149384 396.29254211 167.16080017 395.50695923 166.86129761 394.6975708 C163.93032284 386.78968353 160.96130725 378.89681933 158 371 C61.97 370.505 61.97 370.505 -36 370 C-36.33 372.31 -36.66 374.62 -37 377 C-37.73390198 379.48858643 -37.73390198 379.48858643 -38.60375977 381.79394531 C-38.93299942 382.67718979 -39.26223907 383.56043427 -39.60145569 384.47044373 C-40.14098122 385.88499596 -40.14098122 385.88499596 -40.69140625 387.328125 C-41.0686937 388.33468643 -41.44598114 389.34124786 -41.83470154 390.37831116 C-43.07068745 393.6714044 -44.31649506 396.96068608 -45.5625 400.25 C-46.42062037 402.52992928 -47.27803513 404.81012426 -48.13476562 407.09057617 C-49.44908067 410.58823701 -50.76409405 414.08562267 -52.0819397 417.58195496 C-54.98543564 425.28607453 -57.86144689 432.99984934 -60.71484375 440.72265625 C-61.26453575 442.208759 -61.26453575 442.208759 -61.82533264 443.72488403 C-63.22499404 447.50910342 -64.62463618 451.29331972 -66.01907349 455.07946777 C-66.96794341 457.65439994 -67.92101753 460.22773969 -68.875 462.80078125 C-69.14920273 463.5485231 -69.42340546 464.29626495 -69.70591736 465.06666565 C-69.96538651 465.76436569 -70.22485565 466.46206573 -70.4921875 467.1809082 C-70.82259033 468.0760186 -70.82259033 468.0760186 -71.15966797 468.98921204 C-72.3015074 471.72146179 -73.67568992 474.35137983 -75 477 C-108.33 477 -141.66 477 -176 477 C-173.75077405 466.87848325 -173.75077405 466.87848325 -171.97314453 462.18164062 C-171.5806955 461.13447876 -171.18824646 460.08731689 -170.78390503 459.00842285 C-170.15223923 457.34909729 -170.15223923 457.34909729 -169.5078125 455.65625 C-168.60021968 453.23972086 -167.69300402 450.82305004 -166.78613281 448.40625 C-166.09058289 446.56063477 -166.09058289 446.56063477 -165.38098145 444.67773438 C-163.22308 438.93096034 -161.1078522 433.16867754 -158.9921875 427.40625 C-158.1507946 425.11924458 -157.30924014 422.83229858 -156.4675293 420.54541016 C-156.04466644 419.39615051 -155.62180359 418.24689087 -155.18612671 417.06280518 C-148.38177818 398.5729308 -141.56401966 380.0881797 -134.6875 361.625 C-134.36524445 360.75973694 -134.04298889 359.89447388 -133.71096802 359.00299072 C-131.15965453 352.15394176 -128.60584536 345.30582405 -126.05187988 338.45776367 C-123.80420411 332.43062845 -121.55767251 326.40306818 -119.3125 320.375 C-118.99043579 319.51041168 -118.66837158 318.64582336 -118.33654785 317.7550354 C-112.32915566 301.6226051 -106.38108754 285.46852588 -100.4375 269.3125 C-94.54480483 253.29549025 -88.6355642 237.28568472 -82.625 221.3125 C-76.36841427 204.68452687 -70.17566018 188.03316619 -64 171.375 C-63.75565594 170.71594791 -63.51131187 170.05689583 -63.25956345 169.37787247 C-60.75483832 162.62200047 -58.25064152 155.86593275 -55.74686337 149.10970974 C-52.60725386 140.63777204 -49.46626102 132.16634824 -46.32421875 123.6953125 C-45.97555063 122.75528287 -45.97555063 122.75528287 -45.61983871 121.79626274 C-43.04096572 114.84357756 -40.46164603 107.89105822 -37.88183594 100.9387207 C-37.64814993 100.3089523 -37.41446392 99.6791839 -37.17369652 99.03033161 C-35.22326558 93.77405624 -35.22326558 93.77405624 -34.30722427 91.3055439 C-31.07172361 82.58653991 -27.83841567 73.8667261 -24.60695744 65.14622307 C-22.20228882 58.65712417 -19.79634387 52.16849932 -17.38957882 45.68017769 C-15.93264754 41.75229836 -14.47634563 37.82418829 -13.02157593 33.89550781 C-11.66070272 30.22043115 -10.29816537 26.54597576 -8.9343853 22.87197685 C-8.43309503 21.52060161 -7.93241205 20.16900092 -7.43239021 18.81715584 C-6.74401083 16.95635041 -6.05320739 15.09644228 -5.36230469 13.23657227 C-4.7835257 11.67508202 -4.7835257 11.67508202 -4.1930542 10.08204651 C-2.87912575 6.68774256 -1.43376383 3.34544893 0 0 Z " fill="#010101" transform="translate(1181,1150)"/>
<path d="M0 0 C33.66 0 67.32 0 102 0 C104.743125 7.486875 107.48625 14.97375 110.3125 22.6875 C117.71685805 42.87949627 117.71685805 42.87949627 125.3125 63 C130.75755352 77.22181345 135.99556256 91.51940087 141.25 105.8125 C147.36861678 122.45573511 153.50374685 139.09168423 159.75 155.6875 C165.39355798 170.68415753 170.96997206 185.70467055 176.51672363 200.73739624 C181.65628934 214.66634098 186.81632936 228.58740912 192 242.5 C197.81146615 258.09868134 203.59473232 273.70755959 209.35449219 289.32540894 C213.62925585 300.91618169 217.92863263 312.49729819 222.26171875 324.06640625 C223.14349597 326.42316861 224.02525071 328.77993937 224.90698242 331.13671875 C226.60740709 335.68126372 228.31278807 340.22390898 230.02075195 344.765625 C230.79526789 346.83456682 231.56960963 348.90357387 232.34375 350.97265625 C232.70019089 351.91629532 233.05663177 352.85993439 233.4238739 353.83216858 C233.74999161 354.7061882 234.07610931 355.58020782 234.41210938 356.48071289 C234.69614624 357.23687393 234.98018311 357.99303497 235.27282715 358.77210999 C236.05250983 361.16087801 236.55346091 363.52912428 237 366 C237.66 366 238.32 366 239 366 C239.1119873 365.15687256 239.22397461 364.31374512 239.33935547 363.44506836 C240.049397 359.74240906 241.21226157 356.37805583 242.5703125 352.87890625 C242.83872452 352.17244461 243.10713654 351.46598297 243.38368225 350.7381134 C243.97653441 349.17807224 244.57167887 347.61890079 245.16879272 346.06048584 C246.87556269 341.60173792 248.56090355 337.13490894 250.24609375 332.66796875 C250.61835587 331.68169495 250.99061798 330.69542114 251.37416077 329.67926025 C256.16378472 316.95588916 260.80108424 304.17655791 265.4500351 291.4013176 C267.68738056 285.25380812 269.9270617 279.10714952 272.16796875 272.9609375 C272.41476128 272.28402548 272.6615538 271.60711346 272.91582489 270.90968895 C277.89552777 257.25515489 282.93887524 243.62455804 288 230 C295.29568017 210.35730482 302.51234445 190.68694177 309.6875 171 C317.03157735 150.85025788 324.40910688 130.71361814 331.85791016 110.60229492 C336.56807863 97.88404883 341.25114105 85.15607949 345.92123413 72.42306519 C348.9009093 64.30184287 351.88707705 56.18300623 354.87335205 48.06420898 C356.02172785 44.94090551 357.16886897 41.81715034 358.31591797 38.69335938 C360.18444727 33.60672121 362.05901953 28.52234669 363.93795776 23.43954468 C364.64118407 21.53452299 365.34248527 19.62878947 366.04177856 17.72232056 C367.00185989 15.10590951 367.96877015 12.49212516 368.9375 9.87890625 C369.21996078 9.10436096 369.50242157 8.32981567 369.79344177 7.53179932 C371.77169699 2.22830301 371.77169699 2.22830301 374 0 C375.80783272 -0.24609566 375.80783272 -0.24609566 378.03689575 -0.24050903 C378.88106049 -0.24325836 379.72522522 -0.24600769 380.5949707 -0.24884033 C381.522854 -0.24164978 382.4507373 -0.23445923 383.40673828 -0.22705078 C384.38238739 -0.22734283 385.3580365 -0.22763489 386.36325073 -0.22793579 C389.59902741 -0.22653868 392.83457588 -0.21095951 396.0703125 -0.1953125 C398.30947748 -0.19158373 400.54864409 -0.18873612 402.78781128 -0.18673706 C408.6897632 -0.17908992 414.59161714 -0.15943215 420.49353027 -0.1373291 C426.51260045 -0.11689392 432.53168641 -0.10774033 438.55078125 -0.09765625 C450.36723062 -0.07618729 462.18360717 -0.04203833 474 0 C473.50337821 3.83872635 473.0140989 7.48719347 471.70947266 11.13793945 C471.31554825 12.25376656 471.31554825 12.25376656 470.91366577 13.39213562 C470.62504669 14.18698868 470.33642761 14.98184174 470.0390625 15.80078125 C469.57749252 17.09475578 469.57749252 17.09475578 469.1065979 18.41487122 C468.08030444 21.28001043 467.0419674 24.14052534 466 27 C465.64079468 27.9867572 465.28158936 28.9735144 464.91149902 29.99017334 C462.52390837 36.53521272 460.11500607 43.07227726 457.69891357 49.60684204 C456.33241363 53.30267914 454.96792937 56.99925725 453.60400391 60.69604492 C451.68996097 65.88328325 449.77502077 71.07018933 447.859375 76.25683594 C443.35970054 88.44025663 438.86643604 100.62604006 434.375 112.8125 C433.94125061 113.98917236 433.50750122 115.16584473 433.06060791 116.37817383 C426.3619402 134.55284885 419.70301016 152.74177638 413.06393433 170.93829346 C406.86596518 187.92349054 400.61941514 204.89017033 394.34277344 221.84643555 C389.20675107 235.72300178 384.09756452 249.60926333 379 263.5 C373.186469 279.34069627 367.35461001 295.17444034 361.5 311 C355.66863555 326.76392871 349.85616671 342.53467629 344.0625 358.3125 C343.69014221 359.32644836 343.31778442 360.34039673 342.93414307 361.3850708 C339.14364766 371.70734166 335.35539229 382.03043265 331.56939697 392.35435486 C324.07696537 412.78399694 316.57577416 433.21044437 309.00811768 453.61236572 C308.29866251 455.52588452 307.59011439 457.43973988 306.88250732 459.35394287 C305.91266314 461.97656053 304.9392913 464.5978399 303.96484375 467.21875 C303.67722672 467.99844147 303.38960968 468.77813293 303.09327698 469.58145142 C301.11444227 474.88555773 301.11444227 474.88555773 300 476 C298.393108 476.09600136 296.78198231 476.12187889 295.17222595 476.12025452 C294.12749619 476.12162918 293.08276642 476.12300385 292.00637817 476.12442017 C290.27253372 476.11902725 290.27253372 476.11902725 288.50366211 476.11352539 C287.29407333 476.11367142 286.08448456 476.11381744 284.83824158 476.1139679 C281.51193649 476.11338893 278.18569281 476.10835973 274.8593986 476.10139394 C271.38670071 476.09515978 267.91400207 476.09455655 264.44129944 476.09336853 C257.86103807 476.0902554 251.28079324 476.08204225 244.70053917 476.07201904 C237.21093888 476.06085734 229.72133782 476.05534731 222.2317313 476.05032361 C206.82114461 476.03985962 191.41057443 476.02226053 176 476 C174.4140895 471.88635176 172.82949505 467.77219774 171.24511719 463.65795898 C170.57897903 461.93015324 170.57897903 461.93015324 169.89938354 460.16744232 C166.26474697 450.72621402 162.72652379 441.25233649 159.23925781 431.75585938 C157.44017632 426.8576691 155.63409574 421.96205981 153.828125 417.06640625 C153.25185364 415.50395676 153.25185364 415.50395676 152.66394043 413.90994263 C148.0436238 401.39328532 143.37462022 388.894781 138.70767975 376.39545441 C131.90290893 358.16950846 125.11237365 339.93849145 118.375 321.6875 C118.03740662 320.77302094 117.69981323 319.85854187 117.35198975 318.91635132 C115.9774845 315.19278769 114.60311079 311.46917553 113.22891235 307.74549866 C108.86856694 295.93167792 104.49788979 284.12168237 100.125 272.3125 C99.70439301 271.17662445 99.28378601 270.0407489 98.85043335 268.87045288 C92.42930931 251.53272663 85.98362727 234.20425474 79.52444458 216.88067627 C72.85383966 198.98910567 66.20281468 181.09032876 59.5625 163.1875 C59.19825172 162.2055044 59.19825172 162.2055044 58.8266449 161.2036705 C53.50198777 146.84850816 48.18079554 132.49206909 42.8671875 118.1328125 C34.45800036 95.40852621 26.03816537 72.68822309 17.58352661 49.98080444 C16.62462491 47.40527227 15.66653089 44.82944212 14.709198 42.25332642 C13.37304937 38.65909105 12.03487382 35.06562101 10.6953125 31.47265625 C10.07406242 29.80490898 10.07406242 29.80490898 9.44026184 28.10346985 C6.75061722 20.91529113 3.94401904 13.78999175 0.95654297 6.72045898 C0 4 0 4 0 0 Z " fill="#000000" transform="translate(593,1150)"/>
<path d="M0 0 C0.90520071 0.00184359 1.81040142 0.00368717 2.74303246 0.00558662 C3.78072273 0.0028373 4.81841301 0.00008797 5.88754845 -0.00274467 C7.60197388 0.00804115 7.60197388 0.00804115 9.35103416 0.01904488 C11.15100601 0.0186068 11.15100601 0.0186068 12.98734093 0.01815987 C16.28266962 0.01931654 19.57774939 0.02936419 22.873034 0.04330778 C26.31502395 0.05578909 29.75701702 0.05698358 33.19902611 0.0593586 C39.7190712 0.06558103 46.23904942 0.08200213 52.75906503 0.10205758 C60.18096804 0.12439287 67.60287421 0.13540403 75.02480245 0.14544845 C90.29422964 0.16636773 105.56359009 0.20155848 120.83296776 0.24609566 C121.63613597 2.16674009 122.43859702 4.08768025 123.2407589 6.00874519 C123.68770513 7.07843701 124.13465136 8.14812883 124.59514141 9.25023556 C125.97780149 12.59663077 127.27581038 15.95586519 128.53218651 19.35156441 C128.7640818 19.9764727 128.9959771 20.601381 129.23489952 21.24522591 C129.99921324 23.30711557 130.7599064 25.37031922 131.52046776 27.43359566 C132.08282236 28.95366899 132.64532758 30.4736866 133.20796776 31.99365425 C138.70246905 46.84922092 144.15797544 61.71924254 149.61495018 76.58862495 C155.50798837 92.64590448 161.41738489 108.69710919 167.33296776 124.74609566 C176.11533816 148.57477277 184.87858005 172.41042264 193.6313076 196.25000191 C195.86066543 202.32184525 198.09084444 208.39338676 200.32124901 214.46484566 C200.69328453 215.47758049 201.06532005 216.49031532 201.44862938 217.53373909 C203.32619307 222.6446674 205.2038335 227.75556751 207.08150291 232.86645699 C210.46662889 242.08077137 213.85131044 251.29524765 217.23363304 260.51059151 C224.91190981 281.43041027 232.60197129 302.34569564 240.33296776 323.24609566 C246.14079953 338.94850292 251.93410104 354.65616535 257.70796776 370.37109566 C258.07638786 371.37356331 258.44480797 372.37603096 258.82439232 373.40887642 C263.19236476 385.29620162 267.54401185 397.18933531 271.87593651 409.08984566 C272.72307703 411.41521373 273.57024481 413.74057187 274.41744041 416.06591988 C276.01528331 420.45183954 277.60955645 424.83903244 279.2016201 429.22705269 C279.94409815 431.26744499 280.68709061 433.30765019 281.43062401 435.34765816 C281.78831871 436.33082008 282.14601341 437.31398201 282.51454735 438.32693672 C284.4000374 443.47157948 286.34948761 448.58211972 288.39107323 453.66699409 C288.80924812 454.71164833 289.22742302 455.75630257 289.65826988 456.83261299 C290.45858734 458.81957869 291.26793659 460.80293933 292.08786583 462.78189278 C292.62769348 464.12034752 292.62769348 464.12034752 293.17842674 465.48584175 C293.49859261 466.26285439 293.81875847 467.03986702 294.14862633 467.84042549 C294.83296776 470.24609566 294.83296776 470.24609566 294.83296776 476.24609566 C261.50296776 476.24609566 228.17296776 476.24609566 193.83296776 476.24609566 C185.79946671 455.58852154 185.79946671 455.58852154 183.17671776 448.30468941 C182.87177391 447.46373222 182.56683006 446.62277504 182.25264549 445.7563343 C181.27749648 443.06611327 180.30515815 440.37488711 179.33296776 437.68359566 C177.93810108 433.83038061 176.54188481 429.97765533 175.14546776 426.12500191 C174.61608604 424.66362801 174.61608604 424.66362801 174.07600975 423.1727314 C171.55529607 416.2202327 169.01230239 409.27614963 166.45796776 402.33593941 C166.1084304 401.38523064 165.75889305 400.43452187 165.39876366 399.45500374 C163.3673763 393.92971533 163.3673763 393.92971533 161.32979393 388.40670967 C160.40098191 385.89325018 159.47598487 383.37841675 158.55171776 380.86328316 C158.27440819 380.11646782 157.99709862 379.36965248 157.71138573 378.60020638 C155.83296776 373.47345035 155.83296776 373.47345035 155.83296776 371.24609566 C145.93296776 371.24609566 136.03296776 371.24609566 125.83296776 371.24609566 C125.83296776 370.91609566 125.83296776 370.58609566 125.83296776 370.24609566 C135.73296776 370.24609566 145.63296776 370.24609566 155.83296776 370.24609566 C150.97757864 357.0180693 146.11963414 343.79099366 141.25658226 330.56578255 C139.25967929 325.13363103 137.26596624 319.70036723 135.2823391 314.26335335 C134.17719806 311.23567498 133.06703816 308.20983645 131.95796776 305.18359566 C131.5849453 304.15452095 131.21192284 303.12544624 130.82759666 302.06518745 C129.31718898 297.95672392 127.76548767 293.98277739 125.75093651 290.09375191 C123.68411357 286.10162095 122.35251482 282.03000845 121.02046776 277.74609566 C117.65842848 267.32853599 113.830832 257.10610723 109.95796776 246.87109566 C104.33525544 231.99740688 98.84341459 217.08232447 93.45796776 202.12109566 C86.96714639 184.09568106 80.38048907 166.10802626 73.71626854 148.145998 C73.05587052 146.36559111 72.39555021 144.58515539 71.73531151 142.80468941 C71.25949638 141.52156868 71.25949638 141.52156868 70.77406883 140.21252632 C67.08176592 130.24023681 63.45515829 120.24402468 59.83296776 110.24609566 C56.88539799 113.96891902 55.31104873 117.81794931 53.70796776 122.25000191 C53.40907143 123.05919075 53.11017509 123.86837959 52.8022213 124.70208931 C51.8063783 127.40205829 50.81982289 130.10532999 49.83296776 132.80859566 C49.12528706 134.73163612 48.41685593 136.65440056 47.70772362 138.5769062 C46.19611306 142.67603874 44.68738694 146.77621774 43.18013573 150.87695503 C39.68228891 160.38165271 36.13399347 169.86754103 32.59114647 179.35553169 C26.41079863 195.91186014 20.26117361 212.47933343 14.14378929 229.0590229 C-8.55995074 290.5807308 -8.55995074 290.5807308 -15.66703224 307.68359566 C-24.44289911 328.84853003 -33.40256223 350.60665931 -39.16703224 372.80859566 C-43.13954482 387.97229854 -49.26054309 402.52475917 -54.84427834 417.14843941 C-58.29698921 426.19941971 -61.70585974 435.26697124 -65.12137794 444.33203316 C-69.13196853 454.97179945 -73.15028871 465.60865071 -77.16703224 476.24609566 C-110.49703224 476.24609566 -143.82703224 476.24609566 -178.16703224 476.24609566 C-177.04201428 467.24595199 -177.04201428 467.24595199 -175.41141701 462.86718941 C-175.04844521 461.87964668 -174.6854734 460.89210396 -174.31150246 459.8746357 C-173.91449135 458.82159248 -173.51748024 457.76854927 -173.10843849 456.68359566 C-172.69281654 455.5606208 -172.2771946 454.43764595 -171.84897804 453.28064156 C-170.71935449 450.23390871 -169.58211039 447.19016048 -168.44126701 444.14761543 C-167.23966381 440.93732933 -166.04813012 437.72330809 -164.85526466 434.50976753 C-161.97236791 426.75026594 -159.07151035 418.99754052 -156.16703224 411.24609566 C-155.74929543 410.13073433 -155.33155861 409.015373 -154.9011631 407.86621284 C-151.53168184 398.87088293 -148.15773122 389.87723861 -144.77543068 380.88672066 C-139.44089411 366.69832495 -134.19292416 352.47941032 -128.97953224 338.24609566 C-123.63780128 323.66288619 -118.26178445 309.094299 -112.79203224 294.55859566 C-106.97455631 279.09658469 -101.21313655 263.61440714 -95.47953224 248.12109566 C-95.05968056 246.98664009 -94.63982887 245.85218452 -94.20725441 244.68335152 C-92.05935568 238.87910767 -89.91208653 233.07463116 -87.76517677 227.27002144 C-83.48519594 215.69853411 -79.20147628 204.12843107 -74.91703224 192.55859566 C-74.49754311 191.42573128 -74.07805397 190.2928669 -73.64585304 189.12567329 C-67.91210966 173.64238141 -62.16552772 158.16393794 -56.40305519 142.6913166 C-51.73010113 130.14389932 -47.06810087 117.59245295 -42.414011 105.03802681 C-41.93324898 103.74117151 -41.45248522 102.44431686 -40.97171974 101.14746284 C-40.73112013 100.49844883 -40.49052052 99.84943481 -40.24263 99.18075371 C-38.53743934 94.58139542 -36.8310934 89.98246692 -35.12406349 85.38379097 C-34.76103599 84.40577963 -34.76103599 84.40577963 -34.39067459 83.40801048 C-33.406459 80.75653052 -32.42222918 78.10505585 -31.43788719 75.45362282 C-28.36345819 67.17200091 -25.29395324 58.88858229 -22.23085594 50.60276222 C-20.17894774 45.05291263 -18.12316982 39.50450619 -16.06461906 33.95711708 C-14.84184463 30.6614415 -13.62105415 27.36506131 -12.40500832 24.06689644 C-11.06466999 20.43171825 -9.71584079 16.79972502 -8.36625099 13.16797066 C-7.96839897 12.08465462 -7.57054695 11.00133858 -7.16063881 9.88519478 C-6.6101915 8.41013466 -6.6101915 8.41013466 -6.04862404 6.90527534 C-5.73161034 6.04859261 -5.41459663 5.19190987 -5.08797646 4.30926704 C-3.8694841 1.579505 -3.051535 0.34654284 0 0 Z " fill="#000000" transform="translate(363.1670322418213,1149.7539043426514)"/>
<path d="M0 0 C0.99 0 1.98 0 3 0 C3.1451001 0.64098633 3.2902002 1.28197266 3.43969727 1.94238281 C6.03617363 13.3802304 8.66806168 24.8027078 11.57080078 36.16723633 C22.21413723 77.8621321 32.68038342 120.12108735 23 163 C22.85046875 163.67949707 22.7009375 164.35899414 22.546875 165.05908203 C16.13574391 193.18940374 -1.18774121 217.66593687 -21 238 C-21.68400879 238.70979004 -22.36801758 239.41958008 -23.07275391 240.15087891 C-41.17671039 258.88964429 -60.62230242 271.67376066 -82.95147705 284.85369873 C-98.93187865 294.28639439 -114.66221884 304.10837024 -130.33203125 314.046875 C-133.4255221 316.00800221 -136.52715645 317.9550878 -139.63671875 319.890625 C-163.44119939 334.74007487 -186.64349693 350.62017901 -208.24267578 368.546875 C-210.76933367 370.63615921 -213.32467907 372.68971268 -215.875 374.75 C-220.25116469 378.33228774 -224.4693412 382.06204731 -228.65234375 385.8671875 C-233.09052317 389.89921074 -237.57886585 393.86473701 -242.25 397.625 C-244.89066155 399.90557134 -246.86617012 402.25520173 -249 405 C-248.39437729 405.02061493 -247.78875458 405.04122986 -247.16477966 405.06246948 C-240.7876594 405.28100531 -234.41097044 405.50996292 -228.03442383 405.74462891 C-225.66342303 405.83056622 -223.29232846 405.91395953 -220.92114258 405.99462891 C-179.90716336 407.39548588 -179.90716336 407.39548588 -165 419 C-164.40832031 419.42410156 -163.81664063 419.84820313 -163.20703125 420.28515625 C-141.31684869 436.65877806 -135.35860526 474.53096068 -129.4375 499.375 C-129.21354553 500.31180603 -128.98959106 501.24861206 -128.7588501 502.21380615 C-128.12121436 504.89847352 -127.49368232 507.5852445 -126.87109375 510.2734375 C-126.68094193 511.08067261 -126.4907901 511.88790771 -126.2948761 512.71960449 C-125.42337857 516.55244353 -124.76303319 520.03933972 -125 524 C-133.40989257 523.49505821 -141.67527192 522.39102086 -149.99682617 521.10424805 C-163.58618807 519.05930357 -177.1007232 518.80140196 -190.8125 518.8125 C-191.73584137 518.8117749 -192.65918274 518.8110498 -193.61050415 518.81030273 C-205.51431535 518.81132677 -217.31575492 519.12080951 -229.1875 520 C-240.42525453 520.81572519 -251.61581627 521.27425801 -262.88198853 521.35449219 C-264.54935832 521.36787272 -266.21669143 521.3880638 -267.88388062 521.41601562 C-291.55498298 521.78441388 -312.27972542 515.03708227 -330 499 C-355.74563929 472.95758101 -364.28949111 432.80671395 -364.24658203 397.29638672 C-363.72864617 353.93876965 -351.28429121 308.04734675 -322 275 C-321.14535156 274.02417969 -320.29070313 273.04835938 -319.41015625 272.04296875 C-310.05695584 261.51193281 -299.75786653 252.39589413 -288.6171875 243.8046875 C-285.58944659 241.46974861 -282.61168926 239.07927914 -279.64282227 236.67016602 C-271.11475996 229.76194641 -262.3138584 223.25736782 -253.44824219 216.79101562 C-251.01364443 215.0099816 -248.5874781 213.21808826 -246.1640625 211.421875 C-237.95647354 205.34029291 -229.7058285 199.33512193 -221.34326172 193.46826172 C-216.19684819 189.85558726 -211.09099401 186.19030014 -206 182.5 C-200.1099426 178.23239552 -194.19690137 174.00055369 -188.25 169.8125 C-187.54343262 169.31476074 -186.83686523 168.81702148 -186.10888672 168.30419922 C-184.72526339 167.32958562 -183.34163716 166.35497614 -181.95800781 165.38037109 C-164.73828206 153.24067915 -147.80799644 140.70247704 -131 128 C-130.31196289 127.48083008 -129.62392578 126.96166016 -128.91503906 126.42675781 C-119.03600464 118.96189257 -109.33608679 111.30923393 -99.76904297 103.44873047 C-98.16633768 102.13621968 -96.55438782 100.83501751 -94.94140625 99.53515625 C-89.29751905 94.98001892 -83.88149087 90.23745705 -78.54296875 85.328125 C-76.42932946 83.39305738 -74.29340152 81.49791703 -72.125 79.625 C-59.0162088 68.19136873 -45.86476176 56.24021713 -34.64453125 42.91796875 C-32.62576235 40.56353756 -30.49583429 38.32539974 -28.375 36.0625 C-20.62762384 27.57335379 -13.88232163 18.25188127 -7.0546875 9.01953125 C-6.60029297 8.41222168 -6.14589844 7.80491211 -5.67773438 7.17919922 C-4.45203296 5.54048972 -3.23735419 3.89355212 -2.0234375 2.24609375 C-1.02183594 1.13427734 -1.02183594 1.13427734 0 0 Z " fill="#000000" transform="translate(2520,968)"/>
<path d="M0 0 C0.60658447 0.11069824 1.21316895 0.22139648 1.83813477 0.33544922 C35.95835015 6.48559964 69.79091655 7.46877854 104.32202148 4.72070312 C115.58989902 3.88947247 126.83032903 3.77154794 138.125 3.75 C139.48052475 3.74250732 139.48052475 3.74250732 140.86343384 3.73486328 C166.07259985 3.61981991 187.21525498 9.13027121 206 27 C222.33149979 45.24419797 231.54810672 68.13163059 236 92 C236.17805176 92.89920166 236.35610352 93.79840332 236.53955078 94.72485352 C238.14500159 103.72150352 238.30648403 112.54751651 238.26074219 121.65454102 C238.25008936 124.16642814 238.26066073 126.67758854 238.2734375 129.18945312 C238.31959729 178.80484772 221.03211178 225.82015988 186.5 261.75 C181.93895189 266.14930882 176.95437787 270.05801096 172 274 C171.22873779 274.6185083 171.22873779 274.6185083 170.44189453 275.24951172 C160.18542484 283.47039416 149.62245127 291.26075491 139 299 C138.22543457 299.56541504 137.45086914 300.13083008 136.65283203 300.71337891 C134.37500471 302.37458616 132.0944016 304.03189478 129.8125 305.6875 C129.1618457 306.16106934 128.51119141 306.63463867 127.84082031 307.12255859 C113.60239841 317.41201614 98.94077314 327.12151971 84.375 336.9375 C83.43889893 337.56873779 82.50279785 338.19997559 81.53833008 338.8503418 C69.54852126 346.93492772 57.54082912 354.99161172 45.5 363 C34.60632519 370.24677319 23.75569866 377.54960847 13 385 C12.19981445 385.55316895 11.39962891 386.10633789 10.57519531 386.67626953 C-10.23083188 401.07825833 -30.66089639 415.91634161 -49.8984375 432.37109375 C-52.824486 434.8672705 -55.81356752 437.27926634 -58.8125 439.6875 C-62.83671202 442.95935934 -66.51863173 446.40229727 -70.125 450.125 C-71.90726079 451.90726079 -73.75224068 453.5122839 -75.6875 455.125 C-97.76956925 474.21949518 -113.14223635 499.1635533 -126 525 C-129.15955919 522.4453808 -129.72236657 520.03278624 -130.578125 516.12890625 C-130.98297119 514.33114746 -130.98297119 514.33114746 -131.39599609 512.49707031 C-131.53479187 511.85757446 -131.67358765 511.21807861 -131.81658936 510.5592041 C-132.5621285 507.12453749 -133.34238097 503.69769079 -134.1171875 500.26953125 C-134.27462433 499.56811005 -134.43206116 498.86668884 -134.5942688 498.14401245 C-135.81255103 492.74223342 -137.14961572 487.37691008 -138.53295898 482.01489258 C-165.28584425 378.28443892 -165.28584425 378.28443892 -134.625 325.015625 C-129.99720413 317.18661017 -124.75275806 310.02824736 -119 303 C-118.13522219 301.9129151 -117.27063417 300.82567918 -116.40625 299.73828125 C-94.29824249 272.40428861 -67.19669718 254.47874844 -37.22875977 236.87182617 C-28.31785227 231.62526116 -19.52548287 226.19762876 -10.75537109 220.71972656 C-7.85648796 218.91042895 -4.95383014 217.10729252 -2.05078125 215.3046875 C32.66578229 193.71871213 66.62253918 171.19155914 97.50341797 144.30126953 C98.80085466 143.17315574 100.10491788 142.05267171 101.41015625 140.93359375 C105.17700989 137.6893094 108.72443806 134.31221345 112.203125 130.76171875 C114.75331339 128.26142535 117.46672681 125.96888293 120.203125 123.67578125 C122.07841915 121.92686562 123.48833648 120.06457493 125 118 C123.91244415 118.00999275 123.91244415 118.00999275 122.80291748 118.02018738 C115.91955117 118.08067585 109.03622536 118.12616422 102.15266037 118.15543652 C98.61500317 118.17099244 95.07756834 118.19204237 91.54003906 118.22631836 C87.45896454 118.26560662 83.37811805 118.27979226 79.296875 118.29296875 C77.421138 118.31619453 77.421138 118.31619453 75.50750732 118.33988953 C58.44786966 118.34310995 46.95967696 113.21345045 34.8125 101.4375 C16.6321489 83.03692931 12.27448739 57.30633226 6.48291016 33.02270508 C6.01047256 31.0438651 5.53492704 29.06579604 5.05859375 27.08789062 C4.19703992 23.49808298 3.3456117 19.90609316 2.5 16.3125 C2.24476563 15.2387915 1.98953125 14.16508301 1.7265625 13.05883789 C1.49710938 12.0661792 1.26765625 11.07352051 1.03125 10.05078125 C0.83080078 9.19137939 0.63035156 8.33197754 0.42382812 7.4465332 C-0.01448436 4.91638956 -0.07561445 2.56258501 0 0 Z " fill="#000000" transform="translate(2392,1284)"/>
<path d="M0 0 C33.99 0 67.98 0 103 0 C103 157.41 103 314.82 103 477 C69.34 477 35.68 477 1 477 C-0.72795779 475.27204221 -0.12344571 473.05298498 -0.13100848 470.74926987 C-0.12838146 469.98822846 -0.12575445 469.22718704 -0.12304783 468.44308376 C-0.12420167 467.63826404 -0.12535552 466.83344433 -0.12654433 466.00423613 C-0.12921841 463.27245221 -0.12468237 460.54072571 -0.12025452 457.8089447 C-0.12069006 455.84467653 -0.12156465 453.88040842 -0.12284368 451.91614062 C-0.12509202 446.49124349 -0.12106276 441.0663659 -0.11606562 435.64147127 C-0.11176614 429.80162515 -0.11320719 423.96178023 -0.1139679 418.12193298 C-0.11449345 407.9949562 -0.11134337 397.86798583 -0.10573006 387.74101067 C-0.09761931 373.09891989 -0.09499693 358.45683115 -0.09374207 343.81473834 C-0.09163987 320.06163046 -0.08489754 296.30852592 -0.07543945 272.55541992 C-0.06625982 249.47501646 -0.05917385 226.39461391 -0.05493164 203.31420898 C-0.05480011 202.6031699 -0.05466859 201.89213081 -0.05453308 201.15954508 C-0.05321459 194.01920634 -0.05193877 186.8788676 -0.05069422 179.73852885 C-0.04815779 165.19194257 -0.04533653 150.64535634 -0.04234314 136.09877014 C-0.04220585 135.4298947 -0.04206856 134.76101927 -0.04192711 134.07187488 C-0.03272148 89.38124825 -0.01623651 44.69062468 0 0 Z " fill="#020202" transform="translate(1993,1150)"/>
<path d="M0 0 C3.52296219 1.7614811 4.0683551 6.20343743 5.31640625 9.76171875 C5.6443367 10.67751709 5.97226715 11.59331543 6.31013489 12.53686523 C7.02395598 14.53237439 7.73454054 16.52904349 8.44232178 18.52670288 C10.35699291 23.92931372 12.29566299 29.32332471 14.23046875 34.71875 C14.82761688 36.38716194 14.82761688 36.38716194 15.43682861 38.08927917 C19.34028304 48.98369653 23.34757826 59.83842927 27.375 70.6875 C33.61062232 87.50340033 39.7904578 104.33901959 45.9375 121.1875 C51.93429886 137.62330359 57.94840311 154.05158684 64.05810547 170.44580078 C64.70161703 172.19085469 65.33564391 173.93942794 65.96142578 175.69091797 C67.63700899 180.38038029 69.39740894 185.00273005 71.34716797 189.58569336 C73.91819406 195.72618084 76.24217504 201.93537762 78.50390625 208.1953125 C78.90906967 209.30881073 79.31423309 210.42230896 79.73167419 211.56954956 C81.01125204 215.08708197 82.28716828 218.60592611 83.5625 222.125 C84.84182554 225.65105798 86.12199525 229.17680261 87.40403748 232.70187378 C88.19710604 234.88284445 88.988601 237.06438824 89.7782135 239.24661255 C91.82099658 244.86830048 93.95137645 250.42823079 96.27867126 255.93893433 C97 258 97 258 97 261 C74.87238437 261.9355003 52.78447207 262.1378917 30.63988161 262.10139394 C26.09564659 262.09501658 21.55141043 262.09454551 17.00717163 262.09336853 C8.45520829 262.09029663 -0.09674181 262.08214089 -8.6486994 262.07201904 C-18.40736963 262.06072697 -28.16604059 262.05531493 -37.92471576 262.05032361 C-57.94981781 262.03995332 -77.97490806 262.02243676 -98 262 C-97.53229548 260.09162077 -97.06202981 258.18386911 -96.59069824 256.27638245 C-96.19829578 254.68271268 -96.19829578 254.68271268 -95.797966 253.05684757 C-94.76460826 249.0982615 -93.46408326 245.29331058 -92.03125 241.46484375 C-91.7549173 240.71242401 -91.47858459 239.96000427 -91.19387817 239.18478394 C-90.30284917 236.76639205 -89.40199724 234.35182025 -88.5 231.9375 C-87.86635197 230.22811678 -87.23272596 228.51872539 -86.59912109 226.80932617 C-83.10050648 217.40886481 -79.47377029 208.07604118 -75.625 198.8125 C-68.24060792 181.03169734 -61.70836556 162.92518789 -55.05462646 144.86175537 C-53.32697529 140.17373057 -51.59512854 135.48725722 -49.86328125 130.80078125 C-49.16975767 128.92399142 -48.47623554 127.04720105 -47.78271484 125.17041016 C-47.43762878 124.23658508 -47.09254272 123.30276001 -46.73699951 122.34063721 C-45.68312368 119.4881548 -44.62984832 116.63545121 -43.57666016 113.78271484 C-37.36348149 96.9579174 -31.10905799 80.14857351 -24.83618164 63.34594727 C-21.231662 53.68879535 -17.6358108 44.0289526 -14.0859375 34.3515625 C-13.20558498 31.95771245 -12.32491692 29.56397867 -11.44421387 27.17025757 C-10.65683906 25.02427698 -9.87564009 22.87612143 -9.09472656 20.7277832 C-6.47625198 13.58163952 -3.61450562 6.70604054 0 0 Z " fill="#D31B22" transform="translate(422,1259)"/>
<path d="M0 0 C17.20125 -0.04125 34.4025 -0.0825 52.125 -0.125 C57.53148926 -0.14320801 62.93797852 -0.16141602 68.50830078 -0.18017578 C75.17358398 -0.18920898 75.17358398 -0.18920898 78.30612183 -0.19088745 C80.46718167 -0.19393371 82.62823838 -0.20091541 84.78927612 -0.21115112 C116.66445301 -0.35441747 116.66445301 -0.35441747 128.25 5.1875 C128.91837891 5.49502197 129.58675781 5.80254395 130.27539062 6.11938477 C146.80084412 13.95700021 158.25237429 26.68635937 165.19140625 43.6484375 C170.91326376 60.28881538 170.78086531 77.20922859 163.23291016 93.19921875 C155.28286883 109.27011033 143.87407687 121.68934857 126.734375 128.25 C116.24770675 131.62958977 106.02517912 133.3101058 95.02075195 133.22705078 C93.96873439 133.22729185 92.91671682 133.22753292 91.83281994 133.2277813 C88.46788402 133.2263028 85.10317691 133.21113783 81.73828125 133.1953125 C79.6446544 133.19236752 77.55102608 133.19032989 75.45739746 133.18920898 C67.74240901 133.17877437 60.0274522 133.15085187 52.3125 133.125 C35.049375 133.08375 17.78625 133.0425 0 133 C0 89.11 0 45.22 0 0 Z " fill="#FEFEFE" transform="translate(1635,1238)"/>
<path d="M0 0 C0.94174072 0.01240723 1.88348145 0.02481445 2.85375977 0.03759766 C6.11149021 0.08925383 9.36787952 0.16867479 12.625 0.25 C13.88586426 0.27610352 15.14672852 0.30220703 16.44580078 0.32910156 C19.81564326 0.40075653 23.18489612 0.48080265 26.55426025 0.57141113 C28.50207409 0.62338757 30.45001179 0.67065592 32.39794922 0.71777344 C49.27098259 1.24882742 62.9830281 2.63037696 76.625 13.25 C77.51251953 13.88615234 77.51251953 13.88615234 78.41796875 14.53515625 C100.30815131 30.90877806 106.26639474 68.78096068 112.1875 93.625 C112.41145447 94.56180603 112.63540894 95.49861206 112.8661499 96.46380615 C113.50378564 99.14847352 114.13131768 101.8352445 114.75390625 104.5234375 C114.94405807 105.33067261 115.1342099 106.13790771 115.3301239 106.96960449 C116.20162143 110.80244353 116.86196681 114.28933972 116.625 118.25 C108.21510743 117.74505821 99.94972808 116.64102086 91.62817383 115.35424805 C78.03881193 113.30930357 64.5242768 113.05140196 50.8125 113.0625 C49.88915863 113.0617749 48.96581726 113.0610498 48.01449585 113.06030273 C34.83710347 113.06143633 21.81345883 113.54823216 8.67333984 114.53173828 C-2.41096344 115.31045193 -13.45409744 115.44672338 -24.5625 115.4375 C-25.42104584 115.4382251 -26.27959167 115.4389502 -27.16415405 115.43969727 C-29.60301047 115.43946228 -32.0416489 115.43079173 -34.48046875 115.41796875 C-35.2060498 115.41677536 -35.93163086 115.41558197 -36.67919922 115.41435242 C-40.36526785 115.38012792 -43.7897332 115.12461491 -47.375 114.25 C-47.375 113.26 -47.375 112.27 -47.375 111.25 C-49.01410221 109.21259082 -49.01410221 109.21259082 -51.125 107.125 C-58.77238709 98.6233835 -60.36646517 91.18939177 -59.87890625 79.9375 C-59.2660091 72.44141454 -56.58687359 65.97659968 -53.375 59.25 C-53.05885742 58.57114746 -52.74271484 57.89229492 -52.41699219 57.19287109 C-44.86741326 41.23122426 -34.2993069 27.29684504 -22.74609375 14.03125 C-20.23295617 11.08338516 -17.95919166 8.04212833 -15.7890625 4.8359375 C-11.19166288 -0.32026208 -6.44253992 -0.15566497 0 0 Z " fill="#D41A21" transform="translate(2278.375,1373.75)"/>
<path d="M0 0 C0.90987671 0.16604736 0.90987671 0.16604736 1.83813477 0.33544922 C34.70271615 6.25927229 67.51861706 7.63126094 100.8125 5 C112.36250175 4.11531559 123.8920259 3.62958004 135.47445679 3.48071289 C137.34645426 3.4522093 139.21831077 3.41146186 141.0897522 3.35766602 C157.73118068 2.90078742 157.73118068 2.90078742 163.5546875 7.35546875 C165.44873047 9.20776367 165.44873047 9.20776367 167 11 C167.49000488 11.48509033 167.98000977 11.97018066 168.48486328 12.4699707 C174.19616048 18.51419935 176.25408503 25.0129472 176.5 33.1875 C175.58763249 61.81303069 154.38548877 87.25826534 136.578125 107.9921875 C135.26423262 109.52506195 133.95202847 111.06077596 132.70117188 112.64550781 C130.33863934 115.62302019 128.55974994 117.64650731 125 119 C122.32189941 119.22273254 122.32189941 119.22273254 119.22851562 119.18286133 C118.06630493 119.17237259 116.90409424 119.16188385 115.70666504 119.15107727 C113.82545959 119.11689949 113.82545959 119.11689949 111.90625 119.08203125 C110.60860718 119.06412033 109.31096436 119.04620941 107.97399902 119.02775574 C105.22338904 118.9882669 102.47304734 118.94093649 99.72265625 118.88842773 C96.2309992 118.82262358 92.7394749 118.77866603 89.24741364 118.74116993 C85.88344851 118.70136724 82.51994205 118.64051411 79.15625 118.58203125 C77.29933533 118.5630352 77.29933533 118.5630352 75.40490723 118.5436554 C57.37186968 118.14501313 45.53880267 112.29373097 32.99853516 99.6015625 C16.08944837 81.66526628 12.01174358 56.20466815 6.48291016 33.02270508 C6.01047256 31.0438651 5.53492704 29.06579604 5.05859375 27.08789062 C4.19703992 23.49808298 3.3456117 19.90609316 2.5 16.3125 C2.24476563 15.2387915 1.98953125 14.16508301 1.7265625 13.05883789 C1.49710938 12.0661792 1.26765625 11.07352051 1.03125 10.05078125 C0.73057617 8.76167847 0.73057617 8.76167847 0.42382812 7.4465332 C-0.01448436 4.91638956 -0.07561445 2.56258501 0 0 Z " fill="#D41A21" transform="translate(2392,1284)"/>
<path d="M0 0 C3.52296219 1.7614811 4.0683551 6.20343743 5.31640625 9.76171875 C5.6443367 10.67751709 5.97226715 11.59331543 6.31013489 12.53686523 C7.02395598 14.53237439 7.73454054 16.52904349 8.44232178 18.52670288 C10.35699291 23.92931372 12.29566299 29.32332471 14.23046875 34.71875 C14.82761688 36.38716194 14.82761688 36.38716194 15.43682861 38.08927917 C19.34028304 48.98369653 23.34757826 59.83842927 27.375 70.6875 C34.43394176 89.72368516 41.41716309 108.78685633 48.37060547 127.86181641 C53.30467551 141.394447 53.30467551 141.394447 58.31640625 154.8984375 C58.55536118 155.53761612 58.7943161 156.17679474 59.04051208 156.83534241 C60.06971324 159.58642757 61.1038293 162.33544102 62.14819336 165.08081055 C64.50978965 171.36786028 66.21492943 177.45474125 68 184 C23.12 184 -21.76 184 -68 184 C-67.3127139 179.18899733 -66.81292872 175.95962112 -65.18774414 171.62475586 C-64.62152596 170.09850082 -64.62152596 170.09850082 -64.04386902 168.54141235 C-63.6284938 167.44364471 -63.21311859 166.34587708 -62.78515625 165.21484375 C-62.34669876 164.03876556 -61.90824127 162.86268738 -61.45649719 161.65097046 C-60.50191503 159.09052254 -59.54295061 156.53177622 -58.58050537 153.97427368 C-57.03912018 149.87824017 -55.5073573 145.77865001 -53.97705078 141.6784668 C-52.07416155 136.58187869 -50.1689511 131.48616971 -48.26096344 126.39148808 C-44.53894804 116.4520136 -40.83747053 106.50499787 -37.14453125 96.5546875 C-36.86104639 95.79090097 -36.57756153 95.02711445 -36.28548622 94.24018288 C-35.14765581 91.1743947 -34.00993416 88.1085662 -32.87239933 85.04266834 C-30.99029982 79.97002487 -29.10707215 74.89780184 -27.22290039 69.82592773 C-26.83960461 68.79397734 -26.83960461 68.79397734 -26.44856548 67.74117947 C-25.17914862 64.32381715 -23.90891501 60.90676218 -22.63713074 57.49028015 C-20.20986641 50.96709727 -17.7916168 44.44088255 -15.39787102 37.90531254 C-14.23063071 34.72001666 -13.05908943 31.53631015 -11.8872261 28.35271263 C-11.33078526 26.83739668 -10.77639068 25.32132742 -10.22425461 23.80443764 C-7.24935897 15.63315383 -4.15988862 7.66194075 0 0 Z " fill="#FDFDFD" transform="translate(422,1259)"/>
<path d="M0 0 C0.66 0 1.32 0 2 0 C12.8053177 29.31335646 23.60813626 58.62760989 34.3737793 87.95556641 C35.10334753 89.94303581 35.8329211 91.93050326 36.5625 93.91796875 C36.92217361 94.89779724 37.28184723 95.87762573 37.65242004 96.887146 C39.97902154 103.22377201 42.30966313 109.55889946 44.64286804 115.89309692 C46.26795986 120.30515008 47.89189583 124.71762831 49.51577759 129.13012695 C50.28016339 131.20618246 51.0450916 133.28203836 51.81063843 135.35766602 C55.5990935 145.62984679 59.35990061 155.91158229 63.01953125 166.23046875 C63.32146896 167.07201004 63.62340668 167.91355133 63.93449402 168.78059387 C64.20723648 169.55577866 64.47997894 170.33096344 64.76098633 171.12963867 C65.00134109 171.80741867 65.24169586 172.48519867 65.48933411 173.18351746 C66 175 66 175 66 178 C22.77 178 -20.46 178 -65 178 C-64.27783825 173.6670295 -63.6348542 170.63890261 -62.09375 166.6875 C-61.68954834 165.63892822 -61.28534668 164.59035645 -60.86889648 163.51000977 C-60.41716064 162.35170654 -59.9654248 161.19340332 -59.5 160 C-58.47658616 157.34393278 -57.45875573 154.68573887 -56.44140625 152.02734375 C-56.16659927 151.3102977 -55.8917923 150.59325165 -55.60865784 149.85447693 C-52.14072425 140.78594056 -48.79357465 131.67287281 -45.4375 122.5625 C-43.98761668 118.62997301 -42.53697073 114.69772783 -41.0859375 110.765625 C-40.69767288 109.71345291 -40.30940826 108.66128082 -39.90937805 107.57722473 C-33.3261534 89.74751173 -26.69605806 71.93512892 -20.07514286 54.11938763 C-18.73884689 50.52362091 -17.40261394 46.92783077 -16.06640625 43.33203125 C-15.80918478 42.63986574 -15.55196331 41.94770023 -15.28694725 41.23456001 C-10.18077913 27.4935987 -5.08740151 13.74792076 0 0 Z " fill="#FDFDFD" transform="translate(1242,1258)"/>
<path d="M0 0 C1.97788785 1.41495054 3.71364735 2.89718162 5.46875 4.578125 C6.07976562 5.1246875 6.69078125 5.67125 7.3203125 6.234375 C16.66788261 14.9852917 22.10248202 27.15211078 22.6015625 39.99609375 C22.59355626 43.8591063 22.54887837 47.71593772 22.46875 51.578125 C22.46359375 52.44953125 22.4584375 53.3209375 22.453125 54.21875 C21.8955041 65.92878888 16.57533465 78.21171392 8.46875 86.578125 C7.88609375 87.21105469 7.3034375 87.84398437 6.703125 88.49609375 C-3.26392016 98.31656471 -16.68478946 99.91875291 -29.96362305 99.96313477 C-43.20686562 99.76252886 -52.72783622 95.13154383 -62.23828125 85.92578125 C-73.63162784 73.66711719 -76.22059572 56.78792053 -75.65869141 40.72021484 C-74.86325594 27.35019418 -69.04939204 13.64357224 -59.12109375 4.546875 C-41.77515058 -8.63918135 -19.19565924 -10.78274685 0 0 Z " fill="#040404" transform="translate(1166.53125,1759.421875)"/>
<path d="M0 0 C10.5125035 8.26217072 16.48638118 19.81077391 18.5 32.96484375 C18.78347442 36.5743726 18.83452841 40.15776075 18.8125 43.77734375 C18.80686035 44.74784668 18.8012207 45.71834961 18.79541016 46.71826172 C18.56124353 60.55727746 14.9958865 73.56017195 5.25 83.83984375 C-5.08809488 93.39868525 -16.31314538 97.5610762 -30.3125 97.46484375 C-31.75435669 97.45735107 -31.75435669 97.45735107 -33.2253418 97.44970703 C-41.22333708 97.25442046 -47.41801578 95.860449 -54.5 91.96484375 C-55.33660156 91.50722656 -56.17320313 91.04960938 -57.03515625 90.578125 C-69.07778516 83.23996214 -74.36844811 72.1962231 -77.88476562 58.93286133 C-78.88681003 54.09879233 -78.93476502 49.38549726 -78.875 44.46484375 C-78.88660156 43.50964844 -78.89820313 42.55445313 -78.91015625 41.5703125 C-78.85434367 27.82181277 -74.0816858 13.90280655 -64.546875 3.77734375 C-46.284929 -12.39353973 -20.01240495 -13.7585284 0 0 Z " fill="#030303" transform="translate(1796.5,1762.03515625)"/>
<path d="M0 0 C19 0 19 0 23.625 4 C25.33984375 6.7890625 25.33984375 6.7890625 27 10 C27.6628245 11.17739002 28.33105754 12.35174719 29.00390625 13.5234375 C30.11983371 15.48169876 31.22499473 17.44356717 32.30639648 19.42114258 C41.36176369 35.95132455 52.57322963 51.35984444 63 67 C63.33 44.89 63.66 22.78 64 0 C70.27 0 76.54 0 83 0 C83 33.66 83 67.32 83 102 C78.69789069 103.72084372 76.50316621 104.34034257 72.0625 104.4375 C70.56396484 104.49744141 70.56396484 104.49744141 69.03515625 104.55859375 C64.2844098 103.68426075 61.47832472 101.06953891 58.75219727 97.25317383 C57.52032468 95.26204353 56.37690626 93.23979571 55.25 91.1875 C54.36885074 89.64227953 53.48600092 88.09802771 52.6015625 86.5546875 C52.16231445 85.7822168 51.72306641 85.00974609 51.27050781 84.21386719 C41.74726918 67.61956897 30.63301835 51.87864074 20 36 C19.67 58.11 19.34 80.22 19 103 C12.73 103 6.46 103 0 103 C0 69.01 0 35.02 0 0 Z " fill="#060606" transform="translate(1873,1755)"/>
<path d="M0 0 C8.58 0 17.16 0 26 0 C28.39427644 5.9856911 30.68756955 11.78448499 32.59375 17.90551758 C32.82199463 18.6273674 33.05023926 19.34921722 33.28540039 20.09294128 C34.02726466 22.44233442 34.76369663 24.79339002 35.5 27.14453125 C36.02246272 28.80313648 36.54525539 30.4616378 37.06835938 32.12004089 C38.43800412 36.46548841 39.80297129 40.81239139 41.16699219 45.15960693 C42.54579997 49.55071775 43.92946383 53.94029769 45.3125 58.33007812 C50.5956967 75.10808607 50.5956967 75.10808607 52.73828125 81.97207642 C53.55814425 84.597724 54.38931784 87.21932545 55.23046875 89.83822632 C55.78154297 91.57478989 55.78154297 91.57478989 56.34375 93.34643555 C56.82618164 94.8492231 56.82618164 94.8492231 57.31835938 96.38237 C58 99 58 99 58 103 C52.06 103 46.12 103 40 103 C37.99256335 98.31598114 36.27868213 94.01298065 34.8125 89.1875 C34.46832031 88.06730469 34.12414062 86.94710938 33.76953125 85.79296875 C33 83 33 83 33 81 C19.8 81 6.6 81 -7 81 C-7.99 85.95 -7.99 85.95 -9 91 C-10.20521879 95.05551725 -11.60561531 99.00276389 -13 103 C-18.94 103 -24.88 103 -31 103 C-30.46475063 96.06992926 -28.96403658 90.070814 -26.75 83.5 C-26.02743971 81.30117723 -25.30618606 79.10192484 -24.5859375 76.90234375 C-24.18084961 75.67112793 -23.77576172 74.43991211 -23.35839844 73.17138672 C-21.80325856 68.41736128 -20.29529163 63.64861354 -18.7890625 58.87890625 C-18.50861084 57.99105438 -18.22815918 57.10320251 -17.93920898 56.18844604 C-16.80974908 52.61105812 -15.68110425 49.03341376 -14.55310059 45.45556641 C-11.47377667 35.69514705 -8.35884656 25.95090045 -5.07260132 16.25782776 C-3.25345641 10.86532521 -1.63848144 5.46160481 0 0 Z " fill="#050505" transform="translate(438,1755)"/>
<path d="M0 0 C7.95035814 5.29675634 12.95564619 12.41579208 17 21 C17 21.66 17 22.32 17 23 C14.96185767 23.67736481 12.91929445 24.34143534 10.875 25 C9.73804687 25.37125 8.60109375 25.7425 7.4296875 26.125 C4.03189307 26.99186327 1.47502 27.49006692 -2 27 C-3.546875 25.20703125 -3.546875 25.20703125 -4.75 22.8125 C-8.12549805 17.29686659 -11.76199242 14.72629354 -18 13 C-25.37588971 12.16330767 -31.53033943 12.03593052 -38 16 C-40.14291019 19.21436529 -40.30025791 21.17426609 -40.4609375 24.96484375 C-39.77726393 27.98343639 -38.400296 29.08609018 -36 31 C-33.08049178 32.32267883 -33.08049178 32.32267883 -29.6875 33.3125 C-29.05593994 33.51415771 -28.42437988 33.71581543 -27.77368164 33.92358398 C-23.56969649 35.25254097 -19.33936941 36.49121909 -15.109375 37.734375 C-13.58050659 38.18816528 -13.58050659 38.18816528 -12.02075195 38.65112305 C-9.99885128 39.24877569 -7.97399568 39.83654004 -5.94604492 40.41333008 C3.14257903 43.08809991 8.61593317 46.58238842 13.703125 54.7265625 C17.93857637 62.66268602 19.52022081 68.76897151 17.3671875 77.59375 C14.64315852 85.54496972 9.4166156 92.52221681 1.875 96.4375 C0.6022034 97.0028839 -0.69251495 97.52025739 -2 98 C-2.8146875 98.35707031 -3.629375 98.71414063 -4.46875 99.08203125 C-9.75884739 100.4572225 -14.93302445 100.28805577 -20.375 100.25 C-21.47328125 100.25773437 -22.5715625 100.26546875 -23.703125 100.2734375 C-31.67104053 100.25432979 -38.64705368 99.71132189 -45.6875 95.625 C-46.39261719 95.22539063 -47.09773438 94.82578125 -47.82421875 94.4140625 C-56.60056021 88.71022837 -62.18015024 80.04571476 -65 70 C-64.5625 67.77734375 -64.5625 67.77734375 -64 66 C-62.12743583 65.49095343 -60.25180659 64.99317545 -58.375 64.5 C-57.33085938 64.2215625 -56.28671875 63.943125 -55.2109375 63.65625 C-52.04312582 63.00881404 -49.22258533 62.8838708 -46 63 C-45.70867187 63.80824219 -45.41734375 64.61648438 -45.1171875 65.44921875 C-41.80146631 74.11424459 -41.80146631 74.11424459 -35 80 C-26.49542739 83.33768841 -17.37005392 83.11823639 -8.90234375 79.75390625 C-6.95689375 78.98291683 -5.03747245 78.46739346 -3 78 C-2.86463978 75.91846065 -2.76784535 73.83438794 -2.6875 71.75 C-2.60048828 70.00976562 -2.60048828 70.00976562 -2.51171875 68.234375 C-2.70108685 64.86567527 -2.70108685 64.86567527 -5.21875 62.69921875 C-7.75926792 61.14707648 -10.00413259 60.02220981 -12.8125 59.0625 C-13.7715625 58.7325 -14.730625 58.4025 -15.71875 58.0625 C-19.40813372 56.86784241 -23.10813839 55.70961701 -26.8125 54.5625 C-32.12633065 52.91626436 -37.42309729 51.23644684 -42.6875 49.4375 C-43.78449219 49.06496094 -44.88148437 48.69242188 -46.01171875 48.30859375 C-51.56807634 45.87541755 -54.46584801 42.83384907 -57.25 37.5 C-57.75015625 36.5615625 -58.2503125 35.623125 -58.765625 34.65625 C-61.72757208 28.28243982 -62.30438458 21.03598815 -60.12890625 14.3046875 C-56.05116387 5.56093827 -50.07129692 -0.58206491 -41 -4 C-27.28764398 -8.57078534 -12.58718529 -7.03013381 0 0 Z " fill="#030303" transform="translate(2078,1759)"/>
<path d="M0 0 C4.60616617 4.34093587 8.38777795 9.23134296 11 15 C10.59375 17.70703125 10.59375 17.70703125 10 20 C-3.39819588 24.00515464 -3.39819588 24.00515464 -7 23 C-8.375 21.16015625 -8.375 21.16015625 -9.8125 18.8125 C-12.9948603 13.62582537 -16.10910232 10.76983428 -22 9 C-29.75787191 8.08469552 -37.04805442 8.25664469 -44 12 C-46.31537625 14.5932214 -46.00038684 15.98916835 -45.875 19.5 C-44.85343501 23.58625995 -44.30609175 24.45837991 -41 27 C-37.5735978 28.41719104 -34.05478631 29.45468341 -30.5 30.5 C-28.50775065 31.11177779 -26.51556263 31.72375532 -24.5234375 32.3359375 C-22.68258784 32.89160713 -20.84147167 33.44639518 -19 34 C-5.92666724 37.94724743 3.62796275 43.03461646 11 55 C13.44640375 62.33921124 13.27626441 72.4208832 10.0625 79.5 C4.67567894 88.41301313 -2.05026818 92.63310363 -11.984375 95.30859375 C-13.47710938 95.65083984 -13.47710938 95.65083984 -15 96 C-15.78761719 96.19078125 -16.57523438 96.3815625 -17.38671875 96.578125 C-29.78897645 98.58028319 -42.71446832 97.62827538 -53.25 90.3125 C-60.05740385 84.68220973 -68.28069305 76.98926583 -69.234375 67.72265625 C-69.24779577 65.81355218 -69.13602139 63.90429952 -69 62 C-62.79485526 59.86380263 -57.57315478 58.63482473 -51 59 C-50.63648438 59.99580078 -50.63648438 59.99580078 -50.265625 61.01171875 C-47.55215286 68.16067419 -45.11628459 73.4418577 -38 77 C-30.25536487 79.46187077 -21.35189747 78.6405823 -13.8046875 75.94921875 C-11.02831491 74.48891888 -9.39761982 72.79523964 -8 70 C-7.68871139 67.92779161 -7.68871139 67.92779161 -7.625 65.625 C-7.57601562 64.85414062 -7.52703125 64.08328125 -7.4765625 63.2890625 C-8.28437793 59.75637713 -9.96298043 58.91464277 -13 57 C-16.02426528 55.66583007 -19.11467276 54.60442186 -22.25 53.5625 C-23.12954346 53.26029541 -24.00908691 52.95809082 -24.9152832 52.64672852 C-29.91298337 50.95205178 -34.93257538 49.42771587 -40.02148438 48.03369141 C-49.92449348 45.30790824 -57.67769194 42.32870205 -63.02734375 33.125 C-66.4185039 25.71620031 -67.61519497 17.57976443 -65.3125 9.625 C-64.35896243 7.59078651 -63.29555785 5.83402409 -62 4 C-61.5875 3.38511719 -61.175 2.77023437 -60.75 2.13671875 C-55.90792451 -4.28728481 -48.26417049 -8.08459603 -40.4453125 -9.71484375 C-25.538956 -11.45312494 -12.26120871 -9.24371887 0 0 Z " fill="#030303" transform="translate(861,1763)"/>
<path d="M0 0 C11.534446 -0.4793536 21.98718913 3.24550058 31.1953125 10.1875 C35.80147867 14.52843587 39.58309045 19.41884296 42.1953125 25.1875 C41.7890625 27.89453125 41.7890625 27.89453125 41.1953125 30.1875 C27.94810975 34.1475179 27.94810975 34.1475179 24.1953125 33.1875 C22.4721936 31.30894512 21.06361265 29.33550231 19.6328125 27.2265625 C16.65302327 22.99979626 13.01518954 20.8009916 8.1953125 19.1875 C0.71436653 18.44994195 -6.09948373 18.6451282 -12.8046875 22.1875 C-14.77123832 24.56374891 -14.79577299 26.11618392 -15.1796875 29.1875 C-15.03398625 32.1944246 -15.03398625 32.1944246 -13.3671875 34.3125 C-5.22461462 40.27048015 5.50157037 43.02994956 15.2578125 45.0625 C25.62584839 47.60518956 34.44675032 53.36230714 40.53515625 62.11328125 C44.60630814 68.87921696 45.42024637 76.07710712 43.58203125 83.74609375 C40.60502406 92.15253255 35.29706368 98.80779919 27.4453125 103.125 C15.56333187 108.37770485 0.29473432 109.20870308 -12.078125 105.28515625 C-23.46545602 100.70085823 -30.82738373 94.579471 -36.2421875 83.5625 C-37.88605557 79.58224071 -38.168093 76.45751463 -37.8046875 72.1875 C-35.93212333 71.67845343 -34.05649409 71.18067545 -32.1796875 70.6875 C-31.13554688 70.4090625 -30.09140625 70.130625 -29.015625 69.84375 C-25.84781332 69.19631404 -23.02727283 69.0713708 -19.8046875 69.1875 C-19.51335938 69.99574219 -19.22203125 70.80398438 -18.921875 71.63671875 C-15.62366782 80.32334188 -15.62366782 80.32334188 -8.8046875 86.1875 C-1.44459153 89.34182685 8.24357631 89.53596096 15.8203125 86.875 C19.36423742 85.10303754 21.42493898 83.72824705 23.1953125 80.1875 C23.50660111 78.11529161 23.50660111 78.11529161 23.5703125 75.8125 C23.61929688 75.04164062 23.66828125 74.27078125 23.71875 73.4765625 C22.91093457 69.94387713 21.23233207 69.10214277 18.1953125 67.1875 C15.17105415 65.85333313 12.08069664 64.79174124 8.9453125 63.75 C8.06649414 63.44852051 7.18767578 63.14704102 6.28222656 62.83642578 C1.26556345 61.13740826 -3.77540147 59.59328798 -8.87670898 58.1706543 C-19.12520383 55.30897952 -25.70079938 52.74357111 -31.578125 43.56640625 C-35.37378488 36.20476018 -36.31379579 27.90873966 -34.1875 19.84765625 C-30.33131564 11.23096112 -23.08004101 5.58850322 -14.5234375 2.0859375 C-9.63656596 0.47102305 -5.08650414 0.34004485 0 0 Z " fill="#030303" transform="translate(993.8046875,1752.8125)"/>
<path d="M0 0 C7.39075128 5.11126685 14.91072787 11.6122034 18 20.30078125 C17.5625 22.9765625 17.5625 22.9765625 17 25.30078125 C3.75279725 29.26079915 3.75279725 29.26079915 0 28.30078125 C-1.7231189 26.42222637 -3.13169985 24.44878356 -4.5625 22.33984375 C-7.53731059 18.1201396 -11.17811622 15.89227379 -16 14.30078125 C-19.37814898 13.94803796 -19.37814898 13.94803796 -22.9375 13.98828125 C-24.12214844 13.97152344 -25.30679688 13.95476562 -26.52734375 13.9375 C-31.15769236 14.42188967 -34.48603774 15.93333147 -37.9375 19.05078125 C-39.53191698 22.42719368 -38.90383604 24.74999679 -38 28.30078125 C-33.11410591 34.17822444 -24.7372352 35.7357365 -17.6875 37.73828125 C-2.72565982 42.01285921 9.20839429 46.88201465 18 60.30078125 C20.84773001 66.12005563 20.91897609 72.657894 19.34765625 78.88671875 C16.50431863 86.8187765 11.57703384 93.60868837 3.95703125 97.49609375 C-9.80918363 103.15645356 -25.9232196 104.87613529 -40 99.30078125 C-50.20558068 93.75809519 -58.04474091 85.29355088 -62 74.30078125 C-62.34917336 71.78941901 -62.27607245 69.8406478 -62 67.30078125 C-60.12743583 66.79173468 -58.25180659 66.2939567 -56.375 65.80078125 C-55.33085937 65.52234375 -54.28671875 65.24390625 -53.2109375 64.95703125 C-50.04312582 64.30959529 -47.22258533 64.18465205 -44 64.30078125 C-43.78085937 64.86925781 -43.56171875 65.43773437 -43.3359375 66.0234375 C-40.56577921 72.76866033 -37.37332295 79.09890876 -30.4375 82.23828125 C-21.93019162 84.86721916 -12.93867822 84.1231078 -5 80.30078125 C-1.75150023 78.57851629 -1.75150023 78.57851629 -1 75.30078125 C-0.65524448 73.18772717 -0.65524448 73.18772717 -0.5625 70.92578125 C-0.50191406 70.17554688 -0.44132812 69.4253125 -0.37890625 68.65234375 C-1.3465735 64.9885973 -3.91609238 63.22891732 -7 61.30078125 C-10.43333625 59.8536888 -10.43333625 59.8536888 -14.1875 58.86328125 C-15.59525096 58.45119961 -17.00279386 58.03840674 -18.41015625 57.625 C-19.15023926 57.41278809 -19.89032227 57.20057617 -20.65283203 56.98193359 C-24.82795302 55.77030601 -28.97584894 54.47302142 -33.125 53.17578125 C-33.91801514 52.9341626 -34.71103027 52.69254395 -35.52807617 52.44360352 C-45.22740861 49.42605638 -51.25209163 45.81620352 -56.3125 36.73828125 C-59.70863144 29.56769285 -60.64669026 23.1002809 -58.0390625 15.5 C-54.1547163 7.14989273 -48.05613793 1.63381443 -40 -2.69921875 C-28.03743458 -6.91459895 -11.1067375 -6.29092554 0 0 Z " fill="#040404" transform="translate(336,1757.69921875)"/>
<path d="M0 0 C2.81256281 -0.02684312 5.62487241 -0.04676188 8.4375 -0.0625 C9.23994141 -0.07087891 10.04238281 -0.07925781 10.86914062 -0.08789062 C12.91295221 -0.0965143 14.95683902 -0.0522815 17 0 C18.84114511 1.84114511 18.12501958 4.82353282 18.12597656 7.28881836 C18.1278447 7.94589783 18.12971283 8.60297729 18.13163757 9.27996826 C18.13565175 10.71284021 18.13771734 12.1457186 18.13809967 13.57859612 C18.14151252 16.63455025 18.1628836 19.69029115 18.18333054 22.746171 C18.22131284 28.43765897 18.25262853 34.12892758 18.25048828 39.82055664 C18.24969635 43.77723063 18.27327774 47.73313496 18.3123703 51.68960762 C18.32276855 53.19128512 18.32440022 54.69305216 18.31671906 56.19474602 C18.27669652 64.89570688 18.4944944 72.81299167 24 80 C30.15345544 85.03688593 35.89650489 86.46581308 43.78125 86.41796875 C49.5996812 85.66242004 54.76991328 82.6882412 58.52519226 78.16146851 C64.04628428 70.06979243 63.4706202 59.98276389 63.51171875 50.5859375 C63.52859822 49.1204786 63.54675276 47.65503389 63.56611633 46.18960571 C63.61326854 42.36586952 63.64330122 38.54219086 63.66955566 34.71826172 C63.69953856 30.80294433 63.7460071 26.88782463 63.79101562 22.97265625 C63.87665201 15.31520303 63.94417164 7.65773479 64 0 C66.81256281 -0.02684312 69.62487241 -0.04676188 72.4375 -0.0625 C73.23994141 -0.07087891 74.04238281 -0.07925781 74.86914062 -0.08789062 C76.91295221 -0.0965143 78.95683902 -0.0522815 81 0 C82.80892284 1.80892284 82.15600628 4.58855494 82.17700195 7.02587891 C82.19625481 8.96522812 82.19625481 8.96522812 82.21589661 10.9437561 C82.2240733 12.37135432 82.23151523 13.7989569 82.23828125 15.2265625 C82.24235678 15.94610485 82.2464323 16.6656472 82.25063133 17.40699387 C82.27154395 21.23031072 82.28581165 25.05359135 82.29516602 28.87695312 C82.30611999 32.78913097 82.34037331 36.70072239 82.38033772 40.61269569 C82.40678869 43.64833462 82.41488367 46.68384146 82.41844749 49.71958542 C82.42325653 51.15859217 82.43470348 52.59759537 82.45348549 54.03648758 C82.62651611 68.19604536 80.79386345 82.99321815 71 94 C61.63154142 101.71019889 52.01107999 104.52871053 40.0625 104.4375 C39.13759766 104.45748047 38.21269531 104.47746094 37.25976562 104.49804688 C27.24159223 104.49102643 18.30837825 101.04918009 11 94.09765625 C2.8521736 85.5753893 -0.13395535 76.48850401 -0.11352539 64.82299805 C-0.11367142 64.12001083 -0.11381744 63.41702362 -0.1139679 62.69273376 C-0.11327441 60.38236341 -0.10550857 58.07207492 -0.09765625 55.76171875 C-0.09579006 54.15460759 -0.09436711 52.54749585 -0.09336853 50.94038391 C-0.08955915 46.72031063 -0.07974239 42.50027203 -0.06866455 38.2802124 C-0.05841643 33.97001616 -0.05386363 29.6598143 -0.04882812 25.34960938 C-0.03811867 16.89972371 -0.02106127 8.44986617 0 0 Z " fill="#050505" transform="translate(1366,1755)"/>
<path d="M0 0 C21.78 0 43.56 0 66 0 C66 5.61 66 11.22 66 17 C49.83 17 33.66 17 17 17 C17 24.92 17 32.84 17 41 C30.53 41 44.06 41 58 41 C58 46.28 58 51.56 58 57 C44.47 57 30.94 57 17 57 C17 66.57 17 76.14 17 86 C33.17 86 49.34 86 66 86 C66 91.61 66 97.22 66 103 C44.22 103 22.44 103 0 103 C0 69.01 0 35.02 0 0 Z " fill="#050505" transform="translate(670,1755)"/>
<path d="M0 0 C4.83748647 3.46584474 7.18949074 6.48424598 9.8125 11.9375 C10.11091797 12.53240234 10.40933594 13.12730469 10.71679688 13.74023438 C15.28854468 23.1830092 15.60098684 35.61598192 13.05859375 45.75390625 C9.90069312 54.29706688 6.28428757 61.53922977 -2 66 C-10.59635871 69.90284779 -18.93099187 70.29144362 -27.875 67.25 C-37.03427862 63.48235348 -41.07513727 57.41417265 -45.11328125 48.55859375 C-48.88086979 37.6873581 -48.46862829 22.86146346 -43.8125 12.30859375 C-39.74641838 4.89462428 -34.5809874 0.18372637 -26.6875 -2.875 C-17.43674953 -5.52487192 -8.51457162 -4.45515067 0 0 Z " fill="#FCFCFC" transform="translate(1783,1774)"/>
<path d="M0 0 C8.95173369 3.45339197 13.82351712 8.59980091 17.89453125 17.24609375 C21.67154701 28.54133995 21.82426817 44.12724763 17.01953125 55.0546875 C12.91769538 63.04472195 6.91742926 68.95433118 -1.7890625 71.765625 C-10.94923141 73.66562631 -18.36971215 72.60760835 -26.5078125 68.0078125 C-34.11777476 62.84677043 -37.36270979 55.78724906 -39.69140625 47.046875 C-41.2844815 36.27107353 -41.81470368 23.81484264 -36.10546875 14.24609375 C-35.68136719 13.44945312 -35.25726562 12.6528125 -34.8203125 11.83203125 C-31.33482501 5.87077966 -27.34313097 3.04056642 -21.10546875 0.24609375 C-15.54150254 -2.53588935 -5.93521418 -1.4408759 0 0 Z " fill="#FDFDFD" transform="translate(1150.10546875,1770.75390625)"/>
<path d="M0 0 C27.06 0 54.12 0 82 0 C82 5.28 82 10.56 82 16 C71.44 16 60.88 16 50 16 C50 44.05 50 72.1 50 101 C44.39 101 38.78 101 33 101 C33 72.95 33 44.9 33 16 C22.11 16 11.22 16 0 16 C0 10.72 0 5.44 0 0 Z " fill="#000000" transform="translate(1502,1756)"/>
<path d="M0 0 C5.94 0 11.88 0 18 0 C18 28.38 18 56.76 18 86 C32.52 86 47.04 86 62 86 C62 91.61 62 97.22 62 103 C41.54 103 21.08 103 0 103 C0 69.01 0 35.02 0 0 Z " fill="#070707" transform="translate(1248,1755)"/>
<path d="M0 0 C5.94 0 11.88 0 18 0 C18 28.38 18 56.76 18 86 C32.52 86 47.04 86 62 86 C62 91.28 62 96.56 62 102 C41.54 102 21.08 102 0 102 C0 68.34 0 34.68 0 0 Z " fill="#040404" transform="translate(553,1755)"/>
<path d="M0 0 C5.94 0 11.88 0 18 0 C18 33.99 18 67.98 18 103 C12.06 103 6.12 103 0 103 C0 69.01 0 35.02 0 0 Z " fill="#080808" transform="translate(1640,1755)"/>
<path d="M0 0 C0.66 0 1.32 0 2 0 C3.37122913 4.08868603 4.74035632 8.17806848 6.10766602 12.26806641 C6.57162828 13.65497127 7.0361322 15.04169507 7.5012207 16.42822266 C9.65364656 22.84611246 11.80601058 29.26497421 13.82421875 35.7265625 C14.05584717 36.46729004 14.28747559 37.20801758 14.52612305 37.97119141 C15 40 15 40 15 44 C5.76 44 -3.48 44 -13 44 C-12.2634919 38.84444327 -11.43578791 34.74341792 -9.875 29.875 C-9.55656128 28.87629883 -9.55656128 28.87629883 -9.23168945 27.85742188 C-6.24305122 18.54295633 -3.11970237 9.27120914 0 0 Z " fill="#F5F5F5" transform="translate(450,1775)"/>
<path d="M0 0 C9.66798356 -0.6591807 18.57242609 1.75408557 26 8 C25.01 8.495 25.01 8.495 24 9 C22.1791739 8.32386262 20.39178214 7.55687688 18.625 6.75 C12.53784953 4.10437407 6.47294621 2.41165316 0 1 C0 0.67 0 0.34 0 0 Z " fill="#271515" transform="translate(2325,1376)"/>
</svg>
